<svg xmlns="http://www.w3.org/2000/svg" version="1.1" xmlns:xlink="http://www.w3.org/1999/xlink" xmlns:svgjs="http://svgjs.com/svgjs" width="1440" height="560" preserveAspectRatio="none" viewBox="0 0 1440 560"><g mask="url(&quot;#SvgjsMask1012&quot;)" fill="none"><rect width="1440" height="560" x="0" y="0" fill="rgba(6, 6, 25, 1)"></rect><path d="M70.66 83.74L135.62 121.24L135.62 196.24L70.66 233.74L5.71 196.24L5.71 121.24zM70.66 308.74L135.62 346.24L135.62 421.24L70.66 458.74L5.71 421.24L5.71 346.24zM5.71 421.24L70.66 458.74L70.66 533.74L5.71 571.24L-59.24 533.74L-59.24 458.74zM135.62 -28.76L200.57 8.74L200.57 83.74L135.62 121.24L70.66 83.74L70.66 8.74zM200.57 308.74L265.52 346.24L265.52 421.24L200.57 458.74L135.62 421.24L135.62 346.24zM330.48 83.74L395.43 121.24L395.43 196.24L330.48 233.74L265.52 196.24L265.52 121.24zM265.52 196.24L330.48 233.74L330.48 308.74L265.52 346.24L200.57 308.74L200.57 233.74zM330.48 308.74L395.43 346.24L395.43 421.24L330.48 458.74L265.52 421.24L265.52 346.24zM395.43 196.24L460.39 233.74L460.39 308.74L395.43 346.24L330.48 308.74L330.48 233.74zM655.25 421.24L720.2 458.74L720.2 533.74L655.25 571.24L590.29 533.74L590.29 458.74zM720.2 533.74L785.16 571.24L785.16 646.24L720.2 683.74L655.25 646.24L655.25 571.24zM850.11 83.74L915.06 121.24L915.06 196.24L850.11 233.74L785.15 196.24L785.15 121.24zM915.06 196.24L980.02 233.74L980.02 308.74L915.06 346.24L850.11 308.74L850.11 233.74zM980.02 308.74L1044.97 346.24L1044.97 421.24L980.02 458.74L915.06 421.24L915.06 346.24zM1109.92 83.74L1174.88 121.24L1174.88 196.24L1109.92 233.74L1044.97 196.24L1044.97 121.24zM1044.97 421.24L1109.92 458.74L1109.92 533.74L1044.97 571.24L980.02 533.74L980.02 458.74zM1174.88 -28.76L1239.83 8.74L1239.83 83.74L1174.88 121.24L1109.92 83.74L1109.92 8.74zM1239.83 83.74L1304.78 121.24L1304.78 196.24L1239.83 233.74L1174.88 196.24L1174.88 121.24zM1174.88 196.24L1239.83 233.74L1239.83 308.74L1174.88 346.24L1109.92 308.74L1109.92 233.74zM1239.83 308.74L1304.78 346.24L1304.78 421.24L1239.83 458.74L1174.88 421.24L1174.88 346.24zM1239.83 533.74L1304.78 571.24L1304.78 646.24L1239.83 683.74L1174.88 646.24L1174.88 571.24zM1304.79 -28.76L1369.74 8.74L1369.74 83.74L1304.79 121.24L1239.83 83.74L1239.83 8.74zM1304.79 196.24L1369.74 233.74L1369.74 308.74L1304.79 346.24L1239.83 308.74L1239.83 233.74zM1499.65 308.74L1564.6 346.24L1564.6 421.24L1499.65 458.74L1434.69 421.24L1434.69 346.24zM1499.65 533.74L1564.6 571.24L1564.6 646.24L1499.65 683.74L1434.69 646.24L1434.69 571.24z" stroke="rgba(19, 46, 101, 1)" stroke-width="2"></path><path d="M63.16 83.74 a7.5 7.5 0 1 0 15 0 a7.5 7.5 0 1 0 -15 0zM128.12 121.24 a7.5 7.5 0 1 0 15 0 a7.5 7.5 0 1 0 -15 0zM128.12 196.24 a7.5 7.5 0 1 0 15 0 a7.5 7.5 0 1 0 -15 0zM63.16 233.74 a7.5 7.5 0 1 0 15 0 a7.5 7.5 0 1 0 -15 0zM-1.79 196.24 a7.5 7.5 0 1 0 15 0 a7.5 7.5 0 1 0 -15 0zM-1.79 121.24 a7.5 7.5 0 1 0 15 0 a7.5 7.5 0 1 0 -15 0zM63.16 308.74 a7.5 7.5 0 1 0 15 0 a7.5 7.5 0 1 0 -15 0zM128.12 346.24 a7.5 7.5 0 1 0 15 0 a7.5 7.5 0 1 0 -15 0zM128.12 421.24 a7.5 7.5 0 1 0 15 0 a7.5 7.5 0 1 0 -15 0zM63.16 458.74 a7.5 7.5 0 1 0 15 0 a7.5 7.5 0 1 0 -15 0zM-1.79 421.24 a7.5 7.5 0 1 0 15 0 a7.5 7.5 0 1 0 -15 0zM-1.79 346.24 a7.5 7.5 0 1 0 15 0 a7.5 7.5 0 1 0 -15 0zM63.16 533.74 a7.5 7.5 0 1 0 15 0 a7.5 7.5 0 1 0 -15 0zM-1.79 571.24 a7.5 7.5 0 1 0 15 0 a7.5 7.5 0 1 0 -15 0zM-66.74 533.74 a7.5 7.5 0 1 0 15 0 a7.5 7.5 0 1 0 -15 0zM-66.74 458.74 a7.5 7.5 0 1 0 15 0 a7.5 7.5 0 1 0 -15 0zM128.12 -28.76 a7.5 7.5 0 1 0 15 0 a7.5 7.5 0 1 0 -15 0zM193.07 8.74 a7.5 7.5 0 1 0 15 0 a7.5 7.5 0 1 0 -15 0zM193.07 83.74 a7.5 7.5 0 1 0 15 0 a7.5 7.5 0 1 0 -15 0zM63.16 8.74 a7.5 7.5 0 1 0 15 0 a7.5 7.5 0 1 0 -15 0zM193.07 308.74 a7.5 7.5 0 1 0 15 0 a7.5 7.5 0 1 0 -15 0zM258.02 346.24 a7.5 7.5 0 1 0 15 0 a7.5 7.5 0 1 0 -15 0zM258.02 421.24 a7.5 7.5 0 1 0 15 0 a7.5 7.5 0 1 0 -15 0zM193.07 458.74 a7.5 7.5 0 1 0 15 0 a7.5 7.5 0 1 0 -15 0zM322.98 83.74 a7.5 7.5 0 1 0 15 0 a7.5 7.5 0 1 0 -15 0zM387.93 121.24 a7.5 7.5 0 1 0 15 0 a7.5 7.5 0 1 0 -15 0zM387.93 196.24 a7.5 7.5 0 1 0 15 0 a7.5 7.5 0 1 0 -15 0zM322.98 233.74 a7.5 7.5 0 1 0 15 0 a7.5 7.5 0 1 0 -15 0zM258.02 196.24 a7.5 7.5 0 1 0 15 0 a7.5 7.5 0 1 0 -15 0zM258.02 121.24 a7.5 7.5 0 1 0 15 0 a7.5 7.5 0 1 0 -15 0zM322.98 308.74 a7.5 7.5 0 1 0 15 0 a7.5 7.5 0 1 0 -15 0zM193.07 233.74 a7.5 7.5 0 1 0 15 0 a7.5 7.5 0 1 0 -15 0zM387.93 346.24 a7.5 7.5 0 1 0 15 0 a7.5 7.5 0 1 0 -15 0zM387.93 421.24 a7.5 7.5 0 1 0 15 0 a7.5 7.5 0 1 0 -15 0zM322.98 458.74 a7.5 7.5 0 1 0 15 0 a7.5 7.5 0 1 0 -15 0zM452.89 233.74 a7.5 7.5 0 1 0 15 0 a7.5 7.5 0 1 0 -15 0zM452.89 308.74 a7.5 7.5 0 1 0 15 0 a7.5 7.5 0 1 0 -15 0zM647.75 421.24 a7.5 7.5 0 1 0 15 0 a7.5 7.5 0 1 0 -15 0zM712.7 458.74 a7.5 7.5 0 1 0 15 0 a7.5 7.5 0 1 0 -15 0zM712.7 533.74 a7.5 7.5 0 1 0 15 0 a7.5 7.5 0 1 0 -15 0zM647.75 571.24 a7.5 7.5 0 1 0 15 0 a7.5 7.5 0 1 0 -15 0zM582.79 533.74 a7.5 7.5 0 1 0 15 0 a7.5 7.5 0 1 0 -15 0zM582.79 458.74 a7.5 7.5 0 1 0 15 0 a7.5 7.5 0 1 0 -15 0zM777.66 571.24 a7.5 7.5 0 1 0 15 0 a7.5 7.5 0 1 0 -15 0zM777.66 646.24 a7.5 7.5 0 1 0 15 0 a7.5 7.5 0 1 0 -15 0zM712.7 683.74 a7.5 7.5 0 1 0 15 0 a7.5 7.5 0 1 0 -15 0zM647.75 646.24 a7.5 7.5 0 1 0 15 0 a7.5 7.5 0 1 0 -15 0zM842.61 83.74 a7.5 7.5 0 1 0 15 0 a7.5 7.5 0 1 0 -15 0zM907.56 121.24 a7.5 7.5 0 1 0 15 0 a7.5 7.5 0 1 0 -15 0zM907.56 196.24 a7.5 7.5 0 1 0 15 0 a7.5 7.5 0 1 0 -15 0zM842.61 233.74 a7.5 7.5 0 1 0 15 0 a7.5 7.5 0 1 0 -15 0zM777.65 196.24 a7.5 7.5 0 1 0 15 0 a7.5 7.5 0 1 0 -15 0zM777.65 121.24 a7.5 7.5 0 1 0 15 0 a7.5 7.5 0 1 0 -15 0zM972.52 233.74 a7.5 7.5 0 1 0 15 0 a7.5 7.5 0 1 0 -15 0zM972.52 308.74 a7.5 7.5 0 1 0 15 0 a7.5 7.5 0 1 0 -15 0zM907.56 346.24 a7.5 7.5 0 1 0 15 0 a7.5 7.5 0 1 0 -15 0zM842.61 308.74 a7.5 7.5 0 1 0 15 0 a7.5 7.5 0 1 0 -15 0zM1037.47 346.24 a7.5 7.5 0 1 0 15 0 a7.5 7.5 0 1 0 -15 0zM1037.47 421.24 a7.5 7.5 0 1 0 15 0 a7.5 7.5 0 1 0 -15 0zM972.52 458.74 a7.5 7.5 0 1 0 15 0 a7.5 7.5 0 1 0 -15 0zM907.56 421.24 a7.5 7.5 0 1 0 15 0 a7.5 7.5 0 1 0 -15 0zM1102.42 83.74 a7.5 7.5 0 1 0 15 0 a7.5 7.5 0 1 0 -15 0zM1167.38 121.24 a7.5 7.5 0 1 0 15 0 a7.5 7.5 0 1 0 -15 0zM1167.38 196.24 a7.5 7.5 0 1 0 15 0 a7.5 7.5 0 1 0 -15 0zM1102.42 233.74 a7.5 7.5 0 1 0 15 0 a7.5 7.5 0 1 0 -15 0zM1037.47 196.24 a7.5 7.5 0 1 0 15 0 a7.5 7.5 0 1 0 -15 0zM1037.47 121.24 a7.5 7.5 0 1 0 15 0 a7.5 7.5 0 1 0 -15 0zM1102.42 458.74 a7.5 7.5 0 1 0 15 0 a7.5 7.5 0 1 0 -15 0zM1102.42 533.74 a7.5 7.5 0 1 0 15 0 a7.5 7.5 0 1 0 -15 0zM1037.47 571.24 a7.5 7.5 0 1 0 15 0 a7.5 7.5 0 1 0 -15 0zM972.52 533.74 a7.5 7.5 0 1 0 15 0 a7.5 7.5 0 1 0 -15 0zM1167.38 -28.76 a7.5 7.5 0 1 0 15 0 a7.5 7.5 0 1 0 -15 0zM1232.33 8.74 a7.5 7.5 0 1 0 15 0 a7.5 7.5 0 1 0 -15 0zM1232.33 83.74 a7.5 7.5 0 1 0 15 0 a7.5 7.5 0 1 0 -15 0zM1102.42 8.74 a7.5 7.5 0 1 0 15 0 a7.5 7.5 0 1 0 -15 0zM1297.28 121.24 a7.5 7.5 0 1 0 15 0 a7.5 7.5 0 1 0 -15 0zM1297.28 196.24 a7.5 7.5 0 1 0 15 0 a7.5 7.5 0 1 0 -15 0zM1232.33 233.74 a7.5 7.5 0 1 0 15 0 a7.5 7.5 0 1 0 -15 0zM1232.33 308.74 a7.5 7.5 0 1 0 15 0 a7.5 7.5 0 1 0 -15 0zM1167.38 346.24 a7.5 7.5 0 1 0 15 0 a7.5 7.5 0 1 0 -15 0zM1102.42 308.74 a7.5 7.5 0 1 0 15 0 a7.5 7.5 0 1 0 -15 0zM1297.28 346.24 a7.5 7.5 0 1 0 15 0 a7.5 7.5 0 1 0 -15 0zM1297.28 421.24 a7.5 7.5 0 1 0 15 0 a7.5 7.5 0 1 0 -15 0zM1232.33 458.74 a7.5 7.5 0 1 0 15 0 a7.5 7.5 0 1 0 -15 0zM1167.38 421.24 a7.5 7.5 0 1 0 15 0 a7.5 7.5 0 1 0 -15 0zM1232.33 533.74 a7.5 7.5 0 1 0 15 0 a7.5 7.5 0 1 0 -15 0zM1297.28 571.24 a7.5 7.5 0 1 0 15 0 a7.5 7.5 0 1 0 -15 0zM1297.28 646.24 a7.5 7.5 0 1 0 15 0 a7.5 7.5 0 1 0 -15 0zM1232.33 683.74 a7.5 7.5 0 1 0 15 0 a7.5 7.5 0 1 0 -15 0zM1167.38 646.24 a7.5 7.5 0 1 0 15 0 a7.5 7.5 0 1 0 -15 0zM1167.38 571.24 a7.5 7.5 0 1 0 15 0 a7.5 7.5 0 1 0 -15 0zM1297.29 -28.76 a7.5 7.5 0 1 0 15 0 a7.5 7.5 0 1 0 -15 0zM1362.24 8.74 a7.5 7.5 0 1 0 15 0 a7.5 7.5 0 1 0 -15 0zM1362.24 83.74 a7.5 7.5 0 1 0 15 0 a7.5 7.5 0 1 0 -15 0zM1297.29 121.24 a7.5 7.5 0 1 0 15 0 a7.5 7.5 0 1 0 -15 0zM1297.29 196.24 a7.5 7.5 0 1 0 15 0 a7.5 7.5 0 1 0 -15 0zM1362.24 233.74 a7.5 7.5 0 1 0 15 0 a7.5 7.5 0 1 0 -15 0zM1362.24 308.74 a7.5 7.5 0 1 0 15 0 a7.5 7.5 0 1 0 -15 0zM1297.29 346.24 a7.5 7.5 0 1 0 15 0 a7.5 7.5 0 1 0 -15 0zM1492.15 308.74 a7.5 7.5 0 1 0 15 0 a7.5 7.5 0 1 0 -15 0zM1557.1 346.24 a7.5 7.5 0 1 0 15 0 a7.5 7.5 0 1 0 -15 0zM1557.1 421.24 a7.5 7.5 0 1 0 15 0 a7.5 7.5 0 1 0 -15 0zM1492.15 458.74 a7.5 7.5 0 1 0 15 0 a7.5 7.5 0 1 0 -15 0zM1427.19 421.24 a7.5 7.5 0 1 0 15 0 a7.5 7.5 0 1 0 -15 0zM1427.19 346.24 a7.5 7.5 0 1 0 15 0 a7.5 7.5 0 1 0 -15 0zM1492.15 533.74 a7.5 7.5 0 1 0 15 0 a7.5 7.5 0 1 0 -15 0zM1557.1 571.24 a7.5 7.5 0 1 0 15 0 a7.5 7.5 0 1 0 -15 0zM1557.1 646.24 a7.5 7.5 0 1 0 15 0 a7.5 7.5 0 1 0 -15 0zM1492.15 683.74 a7.5 7.5 0 1 0 15 0 a7.5 7.5 0 1 0 -15 0zM1427.19 646.24 a7.5 7.5 0 1 0 15 0 a7.5 7.5 0 1 0 -15 0zM1427.19 571.24 a7.5 7.5 0 1 0 15 0 a7.5 7.5 0 1 0 -15 0z" fill="rgba(19, 46, 101, 1)"></path><path d="M30.67 107.79L73.97 132.79L73.97 182.79L30.67 207.79L-12.63 182.79L-12.63 132.79zM73.97 182.79L117.28 207.79L117.28 257.79L73.97 282.79L30.67 257.79L30.67 207.79zM30.67 257.79L73.97 282.79L73.97 332.79L30.67 357.79L-12.63 332.79L-12.63 282.79zM117.28 -42.21L160.58 -17.21L160.58 32.79L117.28 57.79L73.97 32.79L73.97 -17.21zM117.28 107.79L160.58 132.79L160.58 182.79L117.28 207.79L73.97 182.79L73.97 132.79zM160.58 182.79L203.88 207.79L203.88 257.79L160.58 282.79L117.28 257.79L117.28 207.79zM247.18 32.79L290.49 57.79L290.49 107.79L247.18 132.79L203.88 107.79L203.88 57.79zM333.79 482.79L377.09 507.79L377.09 557.79L333.79 582.79L290.49 557.79L290.49 507.79zM377.09 107.79L420.39 132.79L420.39 182.79L377.09 207.79L333.79 182.79L333.79 132.79zM463.7 407.79L507 432.79L507 482.79L463.7 507.79L420.39 482.79L420.39 432.79zM507 482.79L550.3 507.79L550.3 557.79L507 582.79L463.7 557.79L463.7 507.79zM550.3 -42.21L593.6 -17.21L593.6 32.79L550.3 57.79L507 32.79L507 -17.21zM593.6 332.79L636.9 357.79L636.9 407.79L593.6 432.79L550.3 407.79L550.3 357.79zM550.3 407.79L593.6 432.79L593.6 482.79L550.3 507.79L507 482.79L507 432.79zM636.9 107.79L680.21 132.79L680.21 182.79L636.9 207.79L593.6 182.79L593.6 132.79zM636.9 407.79L680.21 432.79L680.21 482.79L636.9 507.79L593.6 482.79L593.6 432.79zM723.51 257.79L766.81 282.79L766.81 332.79L723.51 357.79L680.21 332.79L680.21 282.79zM723.51 407.79L766.81 432.79L766.81 482.79L723.51 507.79L680.21 482.79L680.21 432.79zM810.12 257.79L853.42 282.79L853.42 332.79L810.12 357.79L766.81 332.79L766.81 282.79zM896.72 -42.21L940.02 -17.21L940.02 32.79L896.72 57.79L853.42 32.79L853.42 -17.21zM940.02 32.79L983.33 57.79L983.33 107.79L940.02 132.79L896.72 107.79L896.72 57.79zM940.02 482.79L983.33 507.79L983.33 557.79L940.02 582.79L896.72 557.79L896.72 507.79zM983.33 107.79L1026.63 132.79L1026.63 182.79L983.33 207.79L940.02 182.79L940.02 132.79zM983.33 407.79L1026.63 432.79L1026.63 482.79L983.33 507.79L940.02 482.79L940.02 432.79zM1026.63 482.79L1069.93 507.79L1069.93 557.79L1026.63 582.79L983.33 557.79L983.33 507.79zM1069.93 107.79L1113.23 132.79L1113.23 182.79L1069.93 207.79L1026.63 182.79L1026.63 132.79zM1069.93 257.79L1113.23 282.79L1113.23 332.79L1069.93 357.79L1026.63 332.79L1026.63 282.79zM1113.23 332.79L1156.54 357.79L1156.54 407.79L1113.23 432.79L1069.93 407.79L1069.93 357.79zM1199.84 32.79L1243.14 57.79L1243.14 107.79L1199.84 132.79L1156.54 107.79L1156.54 57.79zM1156.54 257.79L1199.84 282.79L1199.84 332.79L1156.54 357.79L1113.23 332.79L1113.23 282.79zM1156.54 407.79L1199.84 432.79L1199.84 482.79L1156.54 507.79L1113.23 482.79L1113.23 432.79zM1199.84 482.79L1243.14 507.79L1243.14 557.79L1199.84 582.79L1156.54 557.79L1156.54 507.79zM1286.44 32.79L1329.75 57.79L1329.75 107.79L1286.44 132.79L1243.14 107.79L1243.14 57.79zM1243.14 107.79L1286.44 132.79L1286.44 182.79L1243.14 207.79L1199.84 182.79L1199.84 132.79zM1286.44 182.79L1329.75 207.79L1329.75 257.79L1286.44 282.79L1243.14 257.79L1243.14 207.79zM1243.14 257.79L1286.44 282.79L1286.44 332.79L1243.14 357.79L1199.84 332.79L1199.84 282.79zM1329.75 -42.21L1373.05 -17.21L1373.05 32.79L1329.75 57.79L1286.44 32.79L1286.44 -17.21zM1373.05 182.79L1416.35 207.79L1416.35 257.79L1373.05 282.79L1329.75 257.79L1329.75 207.79zM1373.05 332.79L1416.35 357.79L1416.35 407.79L1373.05 432.79L1329.75 407.79L1329.75 357.79zM1459.65 32.79L1502.96 57.79L1502.96 107.79L1459.65 132.79L1416.35 107.79L1416.35 57.79zM1459.65 482.79L1502.96 507.79L1502.96 557.79L1459.65 582.79L1416.35 557.79L1416.35 507.79z" stroke="rgba(19, 46, 101, 1)" stroke-width="2"></path></g><defs><mask id="SvgjsMask1012"><rect width="1440" height="560" fill="#ffffff"></rect></mask></defs></svg>