<svg xmlns="http://www.w3.org/2000/svg" version="1.1" xmlns:xlink="http://www.w3.org/1999/xlink" xmlns:svgjs="http://svgjs.com/svgjs" width="1440" height="400" preserveAspectRatio="none" viewBox="0 0 1440 400"><g mask="url(&quot;#SvgjsMask1020&quot;)" fill="none"><rect width="1440" height="400" x="0" y="0" fill="rgba(6, 6, 25, 1)"></rect><path d="M-62.98 410.27L-62.98 410.27" stroke="#132e65" stroke-width="1.5"></path><path d="M-62.98 410.27L38.43 394.22" stroke="#132e65" stroke-width="1.5"></path><path d="M-62.98 410.27L-103.9 523.23" stroke="#132e65" stroke-width="1.5"></path><path d="M-62.98 410.27L107.87 557.97" stroke="#132e65" stroke-width="1.5"></path><path d="M-62.98 410.27L222.25 506.68" stroke="#132e65" stroke-width="1.5"></path><path d="M-62.98 410.27L240.92 379.92" stroke="#132e65" stroke-width="1.5"></path><path d="M-103.9 523.23L-103.9 523.23" stroke="#132e65" stroke-width="1.5"></path><path d="M-103.9 523.23L38.43 394.22" stroke="#132e65" stroke-width="1.5"></path><path d="M-103.9 523.23L107.87 557.97" stroke="#132e65" stroke-width="1.5"></path><path d="M-103.9 523.23L222.25 506.68" stroke="#132e65" stroke-width="1.5"></path><path d="M38.43 394.22L38.43 394.22" stroke="#132e65" stroke-width="1.5"></path><path d="M107.87 557.97L107.87 557.97" stroke="#132e65" stroke-width="1.5"></path><path d="M107.87 557.97L222.25 506.68" stroke="#132e65" stroke-width="1.5"></path><path d="M107.87 557.97L38.43 394.22" stroke="#132e65" stroke-width="1.5"></path><path d="M240.92 379.92L240.92 379.92" stroke="#132e65" stroke-width="1.5"></path><path d="M240.92 379.92L222.25 506.68" stroke="#132e65" stroke-width="1.5"></path><path d="M240.92 379.92L410.33 412.42" stroke="#132e65" stroke-width="1.5"></path><path d="M240.92 379.92L386.63 519.69" stroke="#132e65" stroke-width="1.5"></path><path d="M222.25 506.68L222.25 506.68" stroke="#132e65" stroke-width="1.5"></path><path d="M222.25 506.68L386.63 519.69" stroke="#132e65" stroke-width="1.5"></path><path d="M222.25 506.68L410.33 412.42" stroke="#132e65" stroke-width="1.5"></path><path d="M410.33 412.42L410.33 412.42" stroke="#132e65" stroke-width="1.5"></path><path d="M410.33 412.42L386.63 519.69" stroke="#132e65" stroke-width="1.5"></path><path d="M410.33 412.42L545.97 383.56" stroke="#132e65" stroke-width="1.5"></path><path d="M386.63 519.69L386.63 519.69" stroke="#132e65" stroke-width="1.5"></path><path d="M386.63 519.69L537.92 536.49" stroke="#132e65" stroke-width="1.5"></path><path d="M516.44 248.74L516.44 248.74" stroke="#132e65" stroke-width="1.5"></path><path d="M516.44 248.74L545.97 383.56" stroke="#132e65" stroke-width="1.5"></path><path d="M545.97 383.56L545.97 383.56" stroke="#132e65" stroke-width="1.5"></path><path d="M545.97 383.56L639.83 394.38" stroke="#132e65" stroke-width="1.5"></path><path d="M537.92 536.49L537.92 536.49" stroke="#132e65" stroke-width="1.5"></path><path d="M537.92 536.49L545.97 383.56" stroke="#132e65" stroke-width="1.5"></path><path d="M537.92 536.49L710.25 512.59" stroke="#132e65" stroke-width="1.5"></path><path d="M656.68 204.77L656.68 204.77" stroke="#132e65" stroke-width="1.5"></path><path d="M656.68 204.77L516.44 248.74" stroke="#132e65" stroke-width="1.5"></path><path d="M656.68 204.77L827.34 206.6" stroke="#132e65" stroke-width="1.5"></path><path d="M656.68 204.77L639.83 394.38" stroke="#132e65" stroke-width="1.5"></path><path d="M656.68 204.77L545.97 383.56" stroke="#132e65" stroke-width="1.5"></path><path d="M656.68 204.77L840.14 388.56" stroke="#132e65" stroke-width="1.5"></path><path d="M656.68 204.77L710.25 512.59" stroke="#132e65" stroke-width="1.5"></path><path d="M639.83 394.38L639.83 394.38" stroke="#132e65" stroke-width="1.5"></path><path d="M639.83 394.38L710.25 512.59" stroke="#132e65" stroke-width="1.5"></path><path d="M639.83 394.38L537.92 536.49" stroke="#132e65" stroke-width="1.5"></path><path d="M710.25 512.59L710.25 512.59" stroke="#132e65" stroke-width="1.5"></path><path d="M710.25 512.59L836.64 507.53" stroke="#132e65" stroke-width="1.5"></path><path d="M710.25 512.59L840.14 388.56" stroke="#132e65" stroke-width="1.5"></path><path d="M827.34 206.6L827.34 206.6" stroke="#132e65" stroke-width="1.5"></path><path d="M827.34 206.6L994.83 208.8" stroke="#132e65" stroke-width="1.5"></path><path d="M827.34 206.6L840.14 388.56" stroke="#132e65" stroke-width="1.5"></path><path d="M827.34 206.6L955.49 370.73" stroke="#132e65" stroke-width="1.5"></path><path d="M840.14 388.56L840.14 388.56" stroke="#132e65" stroke-width="1.5"></path><path d="M840.14 388.56L955.49 370.73" stroke="#132e65" stroke-width="1.5"></path><path d="M840.14 388.56L836.64 507.53" stroke="#132e65" stroke-width="1.5"></path><path d="M836.64 507.53L836.64 507.53" stroke="#132e65" stroke-width="1.5"></path><path d="M836.64 507.53L1007.33 524.88" stroke="#132e65" stroke-width="1.5"></path><path d="M836.64 507.53L955.49 370.73" stroke="#132e65" stroke-width="1.5"></path><path d="M836.64 507.53L639.83 394.38" stroke="#132e65" stroke-width="1.5"></path><path d="M836.64 507.53L537.92 536.49" stroke="#132e65" stroke-width="1.5"></path><path d="M985.32 -58.56L985.32 -58.56" stroke="#132e65" stroke-width="1.5"></path><path d="M985.32 -58.56L1008.44 83.65" stroke="#132e65" stroke-width="1.5"></path><path d="M985.32 -58.56L1090.84 79.53" stroke="#132e65" stroke-width="1.5"></path><path d="M1008.44 83.65L1008.44 83.65" stroke="#132e65" stroke-width="1.5"></path><path d="M1008.44 83.65L1090.84 79.53" stroke="#132e65" stroke-width="1.5"></path><path d="M1008.44 83.65L994.83 208.8" stroke="#132e65" stroke-width="1.5"></path><path d="M1008.44 83.65L1144.29 201.05" stroke="#132e65" stroke-width="1.5"></path><path d="M994.83 208.8L994.83 208.8" stroke="#132e65" stroke-width="1.5"></path><path d="M994.83 208.8L1144.29 201.05" stroke="#132e65" stroke-width="1.5"></path><path d="M955.49 370.73L955.49 370.73" stroke="#132e65" stroke-width="1.5"></path><path d="M955.49 370.73L1114.71 379.22" stroke="#132e65" stroke-width="1.5"></path><path d="M955.49 370.73L1007.33 524.88" stroke="#132e65" stroke-width="1.5"></path><path d="M955.49 370.73L994.83 208.8" stroke="#132e65" stroke-width="1.5"></path><path d="M1007.33 524.88L1007.33 524.88" stroke="#132e65" stroke-width="1.5"></path><path d="M1007.33 524.88L1147.21 507.53" stroke="#132e65" stroke-width="1.5"></path><path d="M1007.33 524.88L1114.71 379.22" stroke="#132e65" stroke-width="1.5"></path><path d="M1007.33 524.88L840.14 388.56" stroke="#132e65" stroke-width="1.5"></path><path d="M1007.33 524.88L1302.29 528.87" stroke="#132e65" stroke-width="1.5"></path><path d="M1090.84 79.53L1090.84 79.53" stroke="#132e65" stroke-width="1.5"></path><path d="M1090.84 79.53L1144.29 201.05" stroke="#132e65" stroke-width="1.5"></path><path d="M1090.84 79.53L994.83 208.8" stroke="#132e65" stroke-width="1.5"></path><path d="M1090.84 79.53L1286.5 105.49" stroke="#132e65" stroke-width="1.5"></path><path d="M1090.84 79.53L1258.3 210.35" stroke="#132e65" stroke-width="1.5"></path><path d="M1144.29 201.05L1144.29 201.05" stroke="#132e65" stroke-width="1.5"></path><path d="M1144.29 201.05L1258.3 210.35" stroke="#132e65" stroke-width="1.5"></path><path d="M1144.29 201.05L1286.5 105.49" stroke="#132e65" stroke-width="1.5"></path><path d="M1114.71 379.22L1114.71 379.22" stroke="#132e65" stroke-width="1.5"></path><path d="M1114.71 379.22L1147.21 507.53" stroke="#132e65" stroke-width="1.5"></path><path d="M1114.71 379.22L1294.59 385.11" stroke="#132e65" stroke-width="1.5"></path><path d="M1114.71 379.22L1144.29 201.05" stroke="#132e65" stroke-width="1.5"></path><path d="M1147.21 507.53L1147.21 507.53" stroke="#132e65" stroke-width="1.5"></path><path d="M1147.21 507.53L1302.29 528.87" stroke="#132e65" stroke-width="1.5"></path><path d="M1147.21 507.53L1294.59 385.11" stroke="#132e65" stroke-width="1.5"></path><path d="M1275.89 -41.43L1275.89 -41.43" stroke="#132e65" stroke-width="1.5"></path><path d="M1275.89 -41.43L1286.5 105.49" stroke="#132e65" stroke-width="1.5"></path><path d="M1275.89 -41.43L1447.54 -44.34" stroke="#132e65" stroke-width="1.5"></path><path d="M1275.89 -41.43L1446.62 73.95" stroke="#132e65" stroke-width="1.5"></path><path d="M1275.89 -41.43L1090.84 79.53" stroke="#132e65" stroke-width="1.5"></path><path d="M1286.5 105.49L1286.5 105.49" stroke="#132e65" stroke-width="1.5"></path><path d="M1286.5 105.49L1258.3 210.35" stroke="#132e65" stroke-width="1.5"></path><path d="M1286.5 105.49L1446.62 73.95" stroke="#132e65" stroke-width="1.5"></path><path d="M1286.5 105.49L1457.44 219.55" stroke="#132e65" stroke-width="1.5"></path><path d="M1258.3 210.35L1258.3 210.35" stroke="#132e65" stroke-width="1.5"></path><path d="M1294.59 385.11L1294.59 385.11" stroke="#132e65" stroke-width="1.5"></path><path d="M1294.59 385.11L1421.57 398.48" stroke="#132e65" stroke-width="1.5"></path><path d="M1294.59 385.11L1302.29 528.87" stroke="#132e65" stroke-width="1.5"></path><path d="M1294.59 385.11L1402.67 496.74" stroke="#132e65" stroke-width="1.5"></path><path d="M1302.29 528.87L1302.29 528.87" stroke="#132e65" stroke-width="1.5"></path><path d="M1302.29 528.87L1402.67 496.74" stroke="#132e65" stroke-width="1.5"></path><path d="M1447.54 -44.34L1447.54 -44.34" stroke="#132e65" stroke-width="1.5"></path><path d="M1447.54 -44.34L1446.62 73.95" stroke="#132e65" stroke-width="1.5"></path><path d="M1447.54 -44.34L1572.58 -78.97" stroke="#132e65" stroke-width="1.5"></path><path d="M1447.54 -44.34L1590.01 76.45" stroke="#132e65" stroke-width="1.5"></path><path d="M1446.62 73.95L1446.62 73.95" stroke="#132e65" stroke-width="1.5"></path><path d="M1446.62 73.95L1590.01 76.45" stroke="#132e65" stroke-width="1.5"></path><path d="M1446.62 73.95L1457.44 219.55" stroke="#132e65" stroke-width="1.5"></path><path d="M1457.44 219.55L1457.44 219.55" stroke="#132e65" stroke-width="1.5"></path><path d="M1457.44 219.55L1559.07 213.46" stroke="#132e65" stroke-width="1.5"></path><path d="M1421.57 398.48L1421.57 398.48" stroke="#132e65" stroke-width="1.5"></path><path d="M1421.57 398.48L1402.67 496.74" stroke="#132e65" stroke-width="1.5"></path><path d="M1402.67 496.74L1402.67 496.74" stroke="#132e65" stroke-width="1.5"></path><path d="M1572.58 -78.97L1572.58 -78.97" stroke="#132e65" stroke-width="1.5"></path><path d="M1572.58 -78.97L1590.01 76.45" stroke="#132e65" stroke-width="1.5"></path><path d="M1572.58 -78.97L1446.62 73.95" stroke="#132e65" stroke-width="1.5"></path><path d="M1572.58 -78.97L1559.07 213.46" stroke="#132e65" stroke-width="1.5"></path><path d="M1590.01 76.45L1590.01 76.45" stroke="#132e65" stroke-width="1.5"></path><path d="M1590.01 76.45L1559.07 213.46" stroke="#132e65" stroke-width="1.5"></path><path d="M1559.07 213.46L1559.07 213.46" stroke="#132e65" stroke-width="1.5"></path><path d="M1578.51 356.33L1578.51 356.33" stroke="#132e65" stroke-width="1.5"></path><path d="M1578.51 356.33L1559.07 213.46" stroke="#132e65" stroke-width="1.5"></path><path d="M1578.51 356.33L1581.6 502.45" stroke="#132e65" stroke-width="1.5"></path><path d="M1578.51 356.33L1421.57 398.48" stroke="#132e65" stroke-width="1.5"></path><path d="M1578.51 356.33L1457.44 219.55" stroke="#132e65" stroke-width="1.5"></path><path d="M1578.51 356.33L1402.67 496.74" stroke="#132e65" stroke-width="1.5"></path><path d="M1578.51 356.33L1590.01 76.45" stroke="#132e65" stroke-width="1.5"></path><path d="M1581.6 502.45L1581.6 502.45" stroke="#132e65" stroke-width="1.5"></path><path d="M1581.6 502.45L1402.67 496.74" stroke="#132e65" stroke-width="1.5"></path><path d="M1581.6 502.45L1421.57 398.48" stroke="#132e65" stroke-width="1.5"></path><circle r="5" cx="-62.98" cy="410.27" fill="#132e65"></circle><circle r="5" cx="-103.9" cy="523.23" fill="#132e65"></circle><circle r="5" cx="38.43" cy="394.22" fill="#132e65"></circle><circle r="5" cx="107.87" cy="557.97" fill="#132e65"></circle><circle r="5" cx="240.92" cy="379.92" fill="#132e65"></circle><circle r="5" cx="222.25" cy="506.68" fill="#132e65"></circle><circle r="5" cx="410.33" cy="412.42" fill="#132e65"></circle><circle r="5" cx="386.63" cy="519.69" fill="#132e65"></circle><circle r="5" cx="516.44" cy="248.74" fill="#132e65"></circle><circle r="5" cx="545.97" cy="383.56" fill="#132e65"></circle><circle r="5" cx="537.92" cy="536.49" fill="#132e65"></circle><circle r="5" cx="656.68" cy="204.77" fill="#132e65"></circle><circle r="5" cx="639.83" cy="394.38" fill="#132e65"></circle><circle r="5" cx="710.25" cy="512.59" fill="#132e65"></circle><circle r="5" cx="827.34" cy="206.6" fill="#132e65"></circle><circle r="5" cx="840.14" cy="388.56" fill="#132e65"></circle><circle r="5" cx="836.64" cy="507.53" fill="#132e65"></circle><circle r="5" cx="985.32" cy="-58.56" fill="#132e65"></circle><circle r="5" cx="1008.44" cy="83.65" fill="#132e65"></circle><circle r="5" cx="994.83" cy="208.8" fill="#132e65"></circle><circle r="5" cx="955.49" cy="370.73" fill="#132e65"></circle><circle r="5" cx="1007.33" cy="524.88" fill="#132e65"></circle><circle r="5" cx="1090.84" cy="79.53" fill="#132e65"></circle><circle r="5" cx="1144.29" cy="201.05" fill="#132e65"></circle><circle r="5" cx="1114.71" cy="379.22" fill="#132e65"></circle><circle r="5" cx="1147.21" cy="507.53" fill="#132e65"></circle><circle r="5" cx="1275.89" cy="-41.43" fill="#132e65"></circle><circle r="5" cx="1286.5" cy="105.49" fill="#132e65"></circle><circle r="5" cx="1258.3" cy="210.35" fill="#132e65"></circle><circle r="5" cx="1294.59" cy="385.11" fill="#132e65"></circle><circle r="5" cx="1302.29" cy="528.87" fill="#132e65"></circle><circle r="5" cx="1447.54" cy="-44.34" fill="#132e65"></circle><circle r="5" cx="1446.62" cy="73.95" fill="#132e65"></circle><circle r="5" cx="1457.44" cy="219.55" fill="#132e65"></circle><circle r="5" cx="1421.57" cy="398.48" fill="#132e65"></circle><circle r="5" cx="1402.67" cy="496.74" fill="#132e65"></circle><circle r="5" cx="1572.58" cy="-78.97" fill="#132e65"></circle><circle r="5" cx="1590.01" cy="76.45" fill="#132e65"></circle><circle r="5" cx="1559.07" cy="213.46" fill="#132e65"></circle><circle r="5" cx="1578.51" cy="356.33" fill="#132e65"></circle><circle r="5" cx="1581.6" cy="502.45" fill="#132e65"></circle><path d="M518.84 560.48L518.84 560.48" stroke="hsl(228.5, 77.2%, 51.5%)" stroke-width="1.5"></path><path d="M518.84 560.48L646.34 537.84" stroke="hsl(228.5, 77.2%, 51.5%)" stroke-width="1.5"></path><path d="M518.84 560.48L407.92 489.93" stroke="hsl(228.5, 77.2%, 51.5%)" stroke-width="1.5"></path><path d="M518.84 560.48L540.14 398.64" stroke="hsl(228.5, 77.2%, 51.5%)" stroke-width="1.5"></path><path d="M949.05 368.3L949.05 368.3" stroke="hsl(228.5, 77.2%, 51.5%)" stroke-width="1.5"></path><path d="M949.05 368.3L962.44 508.47" stroke="hsl(228.5, 77.2%, 51.5%)" stroke-width="1.5"></path><path d="M949.05 368.3L799.32 366.03" stroke="hsl(228.5, 77.2%, 51.5%)" stroke-width="1.5"></path><path d="M949.05 368.3L1105.87 403.43" stroke="hsl(228.5, 77.2%, 51.5%)" stroke-width="1.5"></path><path d="M949.05 368.3L1102.57 257.97" stroke="hsl(228.5, 77.2%, 51.5%)" stroke-width="1.5"></path><path d="M-106.22 389.81L-106.22 389.81" stroke="hsl(228.5, 77.2%, 51.5%)" stroke-width="1.5"></path><path d="M-106.22 389.81L63.2 345.96" stroke="hsl(228.5, 77.2%, 51.5%)" stroke-width="1.5"></path><path d="M-106.22 389.81L89.86 543.95" stroke="hsl(228.5, 77.2%, 51.5%)" stroke-width="1.5"></path><path d="M-106.22 389.81L238.43 410.23" stroke="hsl(228.5, 77.2%, 51.5%)" stroke-width="1.5"></path><path d="M-106.22 389.81L257.47 555.95" stroke="hsl(228.5, 77.2%, 51.5%)" stroke-width="1.5"></path><path d="M63.2 345.96L63.2 345.96" stroke="hsl(228.5, 77.2%, 51.5%)" stroke-width="1.5"></path><path d="M63.2 345.96L238.43 410.23" stroke="hsl(228.5, 77.2%, 51.5%)" stroke-width="1.5"></path><path d="M89.86 543.95L89.86 543.95" stroke="hsl(228.5, 77.2%, 51.5%)" stroke-width="1.5"></path><path d="M89.86 543.95L257.47 555.95" stroke="hsl(228.5, 77.2%, 51.5%)" stroke-width="1.5"></path><path d="M89.86 543.95L63.2 345.96" stroke="hsl(228.5, 77.2%, 51.5%)" stroke-width="1.5"></path><path d="M89.86 543.95L238.43 410.23" stroke="hsl(228.5, 77.2%, 51.5%)" stroke-width="1.5"></path><path d="M238.43 410.23L238.43 410.23" stroke="hsl(228.5, 77.2%, 51.5%)" stroke-width="1.5"></path><path d="M238.43 410.23L352.9 350.69" stroke="hsl(228.5, 77.2%, 51.5%)" stroke-width="1.5"></path><path d="M238.43 410.23L257.47 555.95" stroke="hsl(228.5, 77.2%, 51.5%)" stroke-width="1.5"></path><path d="M238.43 410.23L407.92 489.93" stroke="hsl(228.5, 77.2%, 51.5%)" stroke-width="1.5"></path><path d="M238.43 410.23L540.14 398.64" stroke="hsl(228.5, 77.2%, 51.5%)" stroke-width="1.5"></path><path d="M257.47 555.95L257.47 555.95" stroke="hsl(228.5, 77.2%, 51.5%)" stroke-width="1.5"></path><path d="M257.47 555.95L407.92 489.93" stroke="hsl(228.5, 77.2%, 51.5%)" stroke-width="1.5"></path><path d="M352.9 350.69L352.9 350.69" stroke="hsl(228.5, 77.2%, 51.5%)" stroke-width="1.5"></path><path d="M352.9 350.69L407.92 489.93" stroke="hsl(228.5, 77.2%, 51.5%)" stroke-width="1.5"></path><path d="M352.9 350.69L540.14 398.64" stroke="hsl(228.5, 77.2%, 51.5%)" stroke-width="1.5"></path><path d="M407.92 489.93L407.92 489.93" stroke="hsl(228.5, 77.2%, 51.5%)" stroke-width="1.5"></path><path d="M407.92 489.93L540.14 398.64" stroke="hsl(228.5, 77.2%, 51.5%)" stroke-width="1.5"></path><path d="M540.14 398.64L540.14 398.64" stroke="hsl(228.5, 77.2%, 51.5%)" stroke-width="1.5"></path><path d="M540.14 398.64L674.05 369.17" stroke="hsl(228.5, 77.2%, 51.5%)" stroke-width="1.5"></path><path d="M540.14 398.64L646.34 537.84" stroke="hsl(228.5, 77.2%, 51.5%)" stroke-width="1.5"></path><path d="M674.05 369.17L674.05 369.17" stroke="hsl(228.5, 77.2%, 51.5%)" stroke-width="1.5"></path><path d="M674.05 369.17L799.32 366.03" stroke="hsl(228.5, 77.2%, 51.5%)" stroke-width="1.5"></path><path d="M674.05 369.17L646.34 537.84" stroke="hsl(228.5, 77.2%, 51.5%)" stroke-width="1.5"></path><path d="M674.05 369.17L806.43 524.05" stroke="hsl(228.5, 77.2%, 51.5%)" stroke-width="1.5"></path><path d="M646.34 537.84L646.34 537.84" stroke="hsl(228.5, 77.2%, 51.5%)" stroke-width="1.5"></path><path d="M646.34 537.84L806.43 524.05" stroke="hsl(228.5, 77.2%, 51.5%)" stroke-width="1.5"></path><path d="M646.34 537.84L799.32 366.03" stroke="hsl(228.5, 77.2%, 51.5%)" stroke-width="1.5"></path><path d="M799.32 366.03L799.32 366.03" stroke="hsl(228.5, 77.2%, 51.5%)" stroke-width="1.5"></path><path d="M799.32 366.03L806.43 524.05" stroke="hsl(228.5, 77.2%, 51.5%)" stroke-width="1.5"></path><path d="M799.32 366.03L962.44 508.47" stroke="hsl(228.5, 77.2%, 51.5%)" stroke-width="1.5"></path><path d="M806.43 524.05L806.43 524.05" stroke="hsl(228.5, 77.2%, 51.5%)" stroke-width="1.5"></path><path d="M806.43 524.05L962.44 508.47" stroke="hsl(228.5, 77.2%, 51.5%)" stroke-width="1.5"></path><path d="M962.44 508.47L962.44 508.47" stroke="hsl(228.5, 77.2%, 51.5%)" stroke-width="1.5"></path><path d="M1102.57 257.97L1102.57 257.97" stroke="hsl(228.5, 77.2%, 51.5%)" stroke-width="1.5"></path><path d="M1102.57 257.97L1105.87 403.43" stroke="hsl(228.5, 77.2%, 51.5%)" stroke-width="1.5"></path><path d="M1102.57 257.97L1245.58 191.5" stroke="hsl(228.5, 77.2%, 51.5%)" stroke-width="1.5"></path><path d="M1102.57 257.97L1239.27 98.08" stroke="hsl(228.5, 77.2%, 51.5%)" stroke-width="1.5"></path><path d="M1102.57 257.97L962.44 508.47" stroke="hsl(228.5, 77.2%, 51.5%)" stroke-width="1.5"></path><path d="M1102.57 257.97L1143.54 547.3" stroke="hsl(228.5, 77.2%, 51.5%)" stroke-width="1.5"></path><path d="M1105.87 403.43L1105.87 403.43" stroke="hsl(228.5, 77.2%, 51.5%)" stroke-width="1.5"></path><path d="M1105.87 403.43L1143.54 547.3" stroke="hsl(228.5, 77.2%, 51.5%)" stroke-width="1.5"></path><path d="M1105.87 403.43L962.44 508.47" stroke="hsl(228.5, 77.2%, 51.5%)" stroke-width="1.5"></path><path d="M1105.87 403.43L1272.87 501.93" stroke="hsl(228.5, 77.2%, 51.5%)" stroke-width="1.5"></path><path d="M1105.87 403.43L1245.58 191.5" stroke="hsl(228.5, 77.2%, 51.5%)" stroke-width="1.5"></path><path d="M1143.54 547.3L1143.54 547.3" stroke="hsl(228.5, 77.2%, 51.5%)" stroke-width="1.5"></path><path d="M1143.54 547.3L1272.87 501.93" stroke="hsl(228.5, 77.2%, 51.5%)" stroke-width="1.5"></path><path d="M1143.54 547.3L962.44 508.47" stroke="hsl(228.5, 77.2%, 51.5%)" stroke-width="1.5"></path><path d="M1143.54 547.3L949.05 368.3" stroke="hsl(228.5, 77.2%, 51.5%)" stroke-width="1.5"></path><path d="M1143.54 547.3L1410.87 548.22" stroke="hsl(228.5, 77.2%, 51.5%)" stroke-width="1.5"></path><path d="M1241.15 -50L1241.15 -50" stroke="hsl(228.5, 77.2%, 51.5%)" stroke-width="1.5"></path><path d="M1241.15 -50L1239.27 98.08" stroke="hsl(228.5, 77.2%, 51.5%)" stroke-width="1.5"></path><path d="M1241.15 -50L1415.67 -52.38" stroke="hsl(228.5, 77.2%, 51.5%)" stroke-width="1.5"></path><path d="M1241.15 -50L1396.26 65.33" stroke="hsl(228.5, 77.2%, 51.5%)" stroke-width="1.5"></path><path d="M1241.15 -50L1245.58 191.5" stroke="hsl(228.5, 77.2%, 51.5%)" stroke-width="1.5"></path><path d="M1241.15 -50L1406.39 227.07" stroke="hsl(228.5, 77.2%, 51.5%)" stroke-width="1.5"></path><path d="M1239.27 98.08L1239.27 98.08" stroke="hsl(228.5, 77.2%, 51.5%)" stroke-width="1.5"></path><path d="M1239.27 98.08L1245.58 191.5" stroke="hsl(228.5, 77.2%, 51.5%)" stroke-width="1.5"></path><path d="M1239.27 98.08L1396.26 65.33" stroke="hsl(228.5, 77.2%, 51.5%)" stroke-width="1.5"></path><path d="M1245.58 191.5L1245.58 191.5" stroke="hsl(228.5, 77.2%, 51.5%)" stroke-width="1.5"></path><path d="M1245.58 191.5L1406.39 227.07" stroke="hsl(228.5, 77.2%, 51.5%)" stroke-width="1.5"></path><path d="M1245.58 191.5L1396.26 65.33" stroke="hsl(228.5, 77.2%, 51.5%)" stroke-width="1.5"></path><path d="M1272.87 501.93L1272.87 501.93" stroke="hsl(228.5, 77.2%, 51.5%)" stroke-width="1.5"></path><path d="M1272.87 501.93L1410.87 548.22" stroke="hsl(228.5, 77.2%, 51.5%)" stroke-width="1.5"></path><path d="M1272.87 501.93L1424.78 412.29" stroke="hsl(228.5, 77.2%, 51.5%)" stroke-width="1.5"></path><path d="M1272.87 501.93L1102.57 257.97" stroke="hsl(228.5, 77.2%, 51.5%)" stroke-width="1.5"></path><path d="M1272.87 501.93L1406.39 227.07" stroke="hsl(228.5, 77.2%, 51.5%)" stroke-width="1.5"></path><path d="M1415.67 -52.38L1415.67 -52.38" stroke="hsl(228.5, 77.2%, 51.5%)" stroke-width="1.5"></path><path d="M1415.67 -52.38L1396.26 65.33" stroke="hsl(228.5, 77.2%, 51.5%)" stroke-width="1.5"></path><path d="M1415.67 -52.38L1567.37 -58.12" stroke="hsl(228.5, 77.2%, 51.5%)" stroke-width="1.5"></path><path d="M1415.67 -52.38L1578.13 44.58" stroke="hsl(228.5, 77.2%, 51.5%)" stroke-width="1.5"></path><path d="M1415.67 -52.38L1239.27 98.08" stroke="hsl(228.5, 77.2%, 51.5%)" stroke-width="1.5"></path><path d="M1396.26 65.33L1396.26 65.33" stroke="hsl(228.5, 77.2%, 51.5%)" stroke-width="1.5"></path><path d="M1396.26 65.33L1406.39 227.07" stroke="hsl(228.5, 77.2%, 51.5%)" stroke-width="1.5"></path><path d="M1396.26 65.33L1578.13 44.58" stroke="hsl(228.5, 77.2%, 51.5%)" stroke-width="1.5"></path><path d="M1406.39 227.07L1406.39 227.07" stroke="hsl(228.5, 77.2%, 51.5%)" stroke-width="1.5"></path><path d="M1406.39 227.07L1424.78 412.29" stroke="hsl(228.5, 77.2%, 51.5%)" stroke-width="1.5"></path><path d="M1406.39 227.07L1555.82 362.48" stroke="hsl(228.5, 77.2%, 51.5%)" stroke-width="1.5"></path><path d="M1406.39 227.07L1608.03 193.25" stroke="hsl(228.5, 77.2%, 51.5%)" stroke-width="1.5"></path><path d="M1406.39 227.07L1239.27 98.08" stroke="hsl(228.5, 77.2%, 51.5%)" stroke-width="1.5"></path><path d="M1424.78 412.29L1424.78 412.29" stroke="hsl(228.5, 77.2%, 51.5%)" stroke-width="1.5"></path><path d="M1424.78 412.29L1410.87 548.22" stroke="hsl(228.5, 77.2%, 51.5%)" stroke-width="1.5"></path><path d="M1424.78 412.29L1555.82 362.48" stroke="hsl(228.5, 77.2%, 51.5%)" stroke-width="1.5"></path><path d="M1424.78 412.29L1245.58 191.5" stroke="hsl(228.5, 77.2%, 51.5%)" stroke-width="1.5"></path><path d="M1410.87 548.22L1410.87 548.22" stroke="hsl(228.5, 77.2%, 51.5%)" stroke-width="1.5"></path><path d="M1410.87 548.22L1555.82 362.48" stroke="hsl(228.5, 77.2%, 51.5%)" stroke-width="1.5"></path><path d="M1567.37 -58.12L1567.37 -58.12" stroke="hsl(228.5, 77.2%, 51.5%)" stroke-width="1.5"></path><path d="M1567.37 -58.12L1578.13 44.58" stroke="hsl(228.5, 77.2%, 51.5%)" stroke-width="1.5"></path><path d="M1567.37 -58.12L1396.26 65.33" stroke="hsl(228.5, 77.2%, 51.5%)" stroke-width="1.5"></path><path d="M1567.37 -58.12L1608.03 193.25" stroke="hsl(228.5, 77.2%, 51.5%)" stroke-width="1.5"></path><path d="M1567.37 -58.12L1241.15 -50" stroke="hsl(228.5, 77.2%, 51.5%)" stroke-width="1.5"></path><path d="M1567.37 -58.12L1406.39 227.07" stroke="hsl(228.5, 77.2%, 51.5%)" stroke-width="1.5"></path><path d="M1578.13 44.58L1578.13 44.58" stroke="hsl(228.5, 77.2%, 51.5%)" stroke-width="1.5"></path><path d="M1578.13 44.58L1608.03 193.25" stroke="hsl(228.5, 77.2%, 51.5%)" stroke-width="1.5"></path><path d="M1608.03 193.25L1608.03 193.25" stroke="hsl(228.5, 77.2%, 51.5%)" stroke-width="1.5"></path><path d="M1608.03 193.25L1555.82 362.48" stroke="hsl(228.5, 77.2%, 51.5%)" stroke-width="1.5"></path><path d="M1608.03 193.25L1396.26 65.33" stroke="hsl(228.5, 77.2%, 51.5%)" stroke-width="1.5"></path><path d="M1608.03 193.25L1424.78 412.29" stroke="hsl(228.5, 77.2%, 51.5%)" stroke-width="1.5"></path><path d="M1555.82 362.48L1555.82 362.48" stroke="hsl(228.5, 77.2%, 51.5%)" stroke-width="1.5"></path><path d="M1555.82 362.48L1272.87 501.93" stroke="hsl(228.5, 77.2%, 51.5%)" stroke-width="1.5"></path><path d="M1555.82 362.48L1578.13 44.58" stroke="hsl(228.5, 77.2%, 51.5%)" stroke-width="1.5"></path><circle r="25" cx="518.84" cy="560.48" fill="url(#SvgjsRadialGradient1021)"></circle><circle r="25" cx="949.05" cy="368.3" fill="url(#SvgjsRadialGradient1021)"></circle><circle r="5" cx="-106.22" cy="389.81" fill="#8b9ad9"></circle><circle r="5" cx="63.2" cy="345.96" fill="#8b9ad9"></circle><circle r="5" cx="89.86" cy="543.95" fill="#8b9ad9"></circle><circle r="5" cx="238.43" cy="410.23" fill="#8b9ad9"></circle><circle r="5" cx="257.47" cy="555.95" fill="#8b9ad9"></circle><circle r="5" cx="352.9" cy="350.69" fill="#8b9ad9"></circle><circle r="5" cx="407.92" cy="489.93" fill="#8b9ad9"></circle><circle r="5" cx="540.14" cy="398.64" fill="#8b9ad9"></circle><circle r="5" cx="674.05" cy="369.17" fill="#8b9ad9"></circle><circle r="5" cx="646.34" cy="537.84" fill="#8b9ad9"></circle><circle r="5" cx="799.32" cy="366.03" fill="#8b9ad9"></circle><circle r="5" cx="806.43" cy="524.05" fill="#8b9ad9"></circle><circle r="5" cx="962.44" cy="508.47" fill="#8b9ad9"></circle><circle r="5" cx="1102.57" cy="257.97" fill="#8b9ad9"></circle><circle r="5" cx="1105.87" cy="403.43" fill="#8b9ad9"></circle><circle r="5" cx="1143.54" cy="547.3" fill="#8b9ad9"></circle><circle r="5" cx="1241.15" cy="-50" fill="#8b9ad9"></circle><circle r="5" cx="1239.27" cy="98.08" fill="#8b9ad9"></circle><circle r="5" cx="1245.58" cy="191.5" fill="#8b9ad9"></circle><circle r="5" cx="1272.87" cy="501.93" fill="#8b9ad9"></circle><circle r="5" cx="1415.67" cy="-52.38" fill="#8b9ad9"></circle><circle r="5" cx="1396.26" cy="65.33" fill="#8b9ad9"></circle><circle r="5" cx="1406.39" cy="227.07" fill="#8b9ad9"></circle><circle r="5" cx="1424.78" cy="412.29" fill="#8b9ad9"></circle><circle r="5" cx="1410.87" cy="548.22" fill="#8b9ad9"></circle><circle r="5" cx="1567.37" cy="-58.12" fill="#8b9ad9"></circle><circle r="5" cx="1578.13" cy="44.58" fill="#8b9ad9"></circle><circle r="5" cx="1608.03" cy="193.25" fill="#8b9ad9"></circle><circle r="5" cx="1555.82" cy="362.48" fill="#8b9ad9"></circle></g><defs><mask id="SvgjsMask1020"><rect width="1440" height="400" fill="#ffffff"></rect></mask><radialGradient id="SvgjsRadialGradient1021"><stop stop-color="#ffffff" offset="0.1"></stop><stop stop-color="rgba(23, 53, 179, 1)" offset="0.2"></stop><stop stop-color="rgba(23, 53, 179, 0)" offset="1"></stop></radialGradient></defs></svg>