<svg xmlns="http://www.w3.org/2000/svg" xmlns:xlink="http://www.w3.org/1999/xlink" version="1.1" width="1000" height="1000" viewBox="0 0 1000 1000" xml:space="preserve">
<desc>Created with Fabric.js 3.5.0</desc>
<defs>
</defs>
<rect x="0" y="0" width="100%" height="100%" fill="rgba(255,255,255,0)"/>
<g transform="matrix(1.8182 0 0 1.8182 500.0041 691.3295)" id="freepik--floor--inject-45">
<ellipse style="stroke: none; stroke-width: 1; stroke-dasharray: none; stroke-linecap: butt; stroke-dashoffset: 0; stroke-linejoin: miter; stroke-miterlimit: 4; is-custom-font: none; font-file-url: none; fill: rgb(121,96,155); fill-rule: nonzero; opacity: 1;" cx="0" cy="0" rx="223.4" ry="121.49"/>
</g>
<g transform="matrix(1.8182 0 0 1.8182 501.0006 644.4185)" id="freepik--Shadow--inject-45">
<ellipse style="stroke: none; stroke-width: 1; stroke-dasharray: none; stroke-linecap: butt; stroke-dashoffset: 0; stroke-linejoin: miter; stroke-miterlimit: 4; is-custom-font: none; font-file-url: none; fill: rgb(6,6,25); fill-rule: nonzero; opacity: 1;" cx="0" cy="0" rx="33.66" ry="19.44"/>
</g>
<g transform="matrix(1.8182 0 0 1.8182 728.2373 718.3642)" id="freepik--shadow--inject-45">
<ellipse style="stroke: none; stroke-width: 1; stroke-dasharray: none; stroke-linecap: butt; stroke-dashoffset: 0; stroke-linejoin: miter; stroke-miterlimit: 4; is-custom-font: none; font-file-url: none; fill: rgb(6,6,25); fill-rule: nonzero; opacity: 1;" cx="0" cy="0" rx="53.21" ry="30.72"/>
</g>
<g transform="matrix(1.8182 0 0 1.8182 253.4919 724.4006)" id="freepik--shadow--inject-45">
<ellipse style="stroke: none; stroke-width: 1; stroke-dasharray: none; stroke-linecap: butt; stroke-dashoffset: 0; stroke-linejoin: miter; stroke-miterlimit: 4; is-custom-font: none; font-file-url: none; fill: rgb(6,6,25); fill-rule: nonzero; opacity: 1;" cx="0" cy="0" rx="53.21" ry="30.72"/>
</g>
<g transform="matrix(1.8182 0 0 1.8182 876.0406 620.6353)" id="freepik--plants--inject-45">
<path style="stroke: none; stroke-width: 1; stroke-dasharray: none; stroke-linecap: butt; stroke-dashoffset: 0; stroke-linejoin: miter; stroke-miterlimit: 4; is-custom-font: none; font-file-url: none; fill: rgb(241,80,51); fill-rule: nonzero; opacity: 1;" transform=" translate(-456.8222, -316.3491)" d="M 455 348.27 l -10.05 -4.11 a 214.38 214.38 0 0 1 -2.18 -26.22 c 0 -16.42 10.23 -36.5 23.21 -33.14 s -3.66 21.73 -6.36 35.92 S 455 348.27 455 348.27 Z" stroke-linecap="round"/>
</g>
<g transform="matrix(1.8182 0 0 1.8182 875.9451 620.6353)" id="freepik--plants--inject-45">
<path style="stroke: none; stroke-width: 1; stroke-dasharray: none; stroke-linecap: butt; stroke-dashoffset: 0; stroke-linejoin: miter; stroke-miterlimit: 4; is-custom-font: none; font-file-url: none; fill: rgb(0,0,0); fill-rule: nonzero; opacity: 0.3;" transform=" translate(-456.8222, -316.3491)" d="M 455 348.27 l -10.05 -4.11 a 214.38 214.38 0 0 1 -2.18 -26.22 c 0 -16.42 10.23 -36.5 23.21 -33.14 s -3.66 21.73 -6.36 35.92 S 455 348.27 455 348.27 Z" stroke-linecap="round"/>
</g>
<g transform="matrix(1.8182 0 0 1.8182 873.5508 624.2481)" id="freepik--plants--inject-45">
<path style="stroke: none; stroke-width: 1; stroke-dasharray: none; stroke-linecap: butt; stroke-dashoffset: 0; stroke-linejoin: miter; stroke-miterlimit: 4; is-custom-font: none; font-file-url: none; fill: rgb(255,255,255); fill-rule: nonzero; opacity: 1;" transform=" translate(-455.4529, -318.3362)" d="M 450.13 347 h 0 a 0.42 0.42 0 0 0 0.36 -0.47 c -4.79 -36 11.4 -56 11.56 -56.17 a 0.42 0.42 0 1 0 -0.65 -0.54 c -0.16 0.2 -16.59 20.44 -11.75 56.82 A 0.42 0.42 0 0 0 450.13 347 Z" stroke-linecap="round"/>
</g>
<g transform="matrix(1.8182 0 0 1.8182 896.6298 640.7348)" id="freepik--plants--inject-45">
<path style="stroke: none; stroke-width: 1; stroke-dasharray: none; stroke-linecap: butt; stroke-dashoffset: 0; stroke-linejoin: miter; stroke-miterlimit: 4; is-custom-font: none; font-file-url: none; fill: rgb(241,80,51); fill-rule: nonzero; opacity: 1;" transform=" translate(-468.1462, -327.4039)" d="M 460.16 350.67 l -5.25 -2.38 a 55.79 55.79 0 0 1 0.7 -24.41 c 3.37 -12.94 14.59 -20.92 20.24 -19.6 c 6.91 1.61 7.58 8 5.56 12.45 C 479 322 462.38 336.27 460.16 350.67 Z" stroke-linecap="round"/>
</g>
<g transform="matrix(1.8182 0 0 1.8182 896.6298 640.7348)" id="freepik--plants--inject-45">
<path style="stroke: none; stroke-width: 1; stroke-dasharray: none; stroke-linecap: butt; stroke-dashoffset: 0; stroke-linejoin: miter; stroke-miterlimit: 4; is-custom-font: none; font-file-url: none; fill: rgb(0,0,0); fill-rule: nonzero; opacity: 0.1;" transform=" translate(-468.1462, -327.4039)" d="M 460.16 350.67 l -5.25 -2.38 a 55.79 55.79 0 0 1 0.7 -24.41 c 3.37 -12.94 14.59 -20.92 20.24 -19.6 c 6.91 1.61 7.58 8 5.56 12.45 C 479 322 462.38 336.27 460.16 350.67 Z" stroke-linecap="round"/>
</g>
<g transform="matrix(1.8182 0 0 1.8182 893.1203 643.5652)" id="freepik--plants--inject-45">
<path style="stroke: none; stroke-width: 1; stroke-dasharray: none; stroke-linecap: butt; stroke-dashoffset: 0; stroke-linejoin: miter; stroke-miterlimit: 4; is-custom-font: none; font-file-url: none; fill: rgb(255,255,255); fill-rule: nonzero; opacity: 1;" transform=" translate(-466.2161, -328.9607)" d="M 457.43 349.84 h 0 a 0.43 0.43 0 0 0 0.38 -0.47 c -2.36 -22.84 17.57 -40.4 17.78 -40.57 a 0.44 0.44 0 0 0 0 -0.6 a 0.42 0.42 0 0 0 -0.6 0 c -0.21 0.18 -20.46 18 -18.07 41.3 A 0.44 0.44 0 0 0 457.43 349.84 Z" stroke-linecap="round"/>
</g>
<g transform="matrix(1.8182 0 0 1.8182 136.6142 602.318)" id="freepik--plants--inject-45">
<path style="stroke: none; stroke-width: 1; stroke-dasharray: none; stroke-linecap: butt; stroke-dashoffset: 0; stroke-linejoin: miter; stroke-miterlimit: 4; is-custom-font: none; font-file-url: none; fill: rgb(241,80,51); fill-rule: nonzero; opacity: 1;" transform=" translate(-50.1377, -306.2746)" d="M 56 339.07 l 6.9 -3.94 s 3.3 -18.21 0.83 -33.87 c -3.48 -22 -18.47 -29.61 -23.91 -27.42 s -6.72 8.71 3.11 21.43 C 48.73 302.77 56.19 318.64 56 339.07 Z" stroke-linecap="round"/>
</g>
<g transform="matrix(1.8182 0 0 1.8182 136.6142 602.318)" id="freepik--plants--inject-45">
<path style="stroke: none; stroke-width: 1; stroke-dasharray: none; stroke-linecap: butt; stroke-dashoffset: 0; stroke-linejoin: miter; stroke-miterlimit: 4; is-custom-font: none; font-file-url: none; fill: rgb(0,0,0); fill-rule: nonzero; opacity: 0.15;" transform=" translate(-50.1377, -306.2746)" d="M 56 339.07 l 6.9 -3.94 s 3.3 -18.21 0.83 -33.87 c -3.48 -22 -18.47 -29.61 -23.91 -27.42 s -6.72 8.71 3.11 21.43 C 48.73 302.77 56.19 318.64 56 339.07 Z" stroke-linecap="round"/>
</g>
<g transform="matrix(1.8182 0 0 1.8182 138.7518 597.1968)" id="freepik--plants--inject-45">
<path style="stroke: none; stroke-width: 1; stroke-dasharray: none; stroke-linecap: butt; stroke-dashoffset: 0; stroke-linejoin: miter; stroke-miterlimit: 4; is-custom-font: none; font-file-url: none; fill: rgb(255,255,255); fill-rule: nonzero; opacity: 1;" transform=" translate(-51.3134, -303.458)" d="M 58.5 330.33 h -0.07 a 0.48 0.48 0 0 1 -0.41 -0.55 c 2.84 -20.61 -5.44 -43.19 -14.76 -52.29 a 0.5 0.5 0 1 1 0.69 -0.71 C 53.43 286 61.88 309 59 329.9 A 0.5 0.5 0 0 1 58.5 330.33 Z" stroke-linecap="round"/>
</g>
<g transform="matrix(1.8182 0 0 1.8182 121.8707 629.6554)" id="freepik--plants--inject-45">
<path style="stroke: none; stroke-width: 1; stroke-dasharray: none; stroke-linecap: butt; stroke-dashoffset: 0; stroke-linejoin: miter; stroke-miterlimit: 4; is-custom-font: none; font-file-url: none; fill: rgb(241,80,51); fill-rule: nonzero; opacity: 1;" transform=" translate(-42.0287, -321.3102)" d="M 36.88 350.12 c -1.09 0.62 -3.33 -0.74 -4.19 -1.32 a 10.52 10.52 0 0 1 -3.46 -4 a 9.73 9.73 0 0 1 -0.86 -5.85 a 22.65 22.65 0 0 1 0.74 -3.11 l 0.87 -3 a 7.75 7.75 0 0 0 0.44 -3 c -0.26 -2.07 -2.1 -3.51 -3.76 -4.76 c -1.85 -1.38 -3.76 -3.2 -3.75 -5.69 a 8.66 8.66 0 0 1 2.19 -5.2 c 1.18 -1.51 2.59 -2.84 3.67 -4.43 A 6.07 6.07 0 0 0 30 305.87 a 6.37 6.37 0 0 0 -0.84 -2.41 a 33.46 33.46 0 0 1 -2.64 -4.84 c -0.61 -1.74 -0.52 -3.9 0.84 -5.15 a 5.67 5.67 0 0 1 4.27 -1.06 a 9.74 9.74 0 0 1 4 1.4 c 3.95 2.19 6.2 6.87 10.39 8.56 a 41 41 0 0 0 5.06 1.23 a 6.24 6.24 0 0 1 4.18 2.87 c 1.54 3.07 -1.31 6.85 -0.23 10.11 c 1 2.88 3.76 4 5.33 6.59 a 6.14 6.14 0 0 1 0.74 3.77 a 18.26 18.26 0 0 1 -1.59 6.38 A 45.34 45.34 0 0 1 56 339.07 C 55.94 339.14 37.05 350 36.88 350.12 Z" stroke-linecap="round"/>
</g>
<g transform="matrix(1.8182 0 0 1.8182 119.0906 626.9705)" id="freepik--plants--inject-45">
<path style="stroke: none; stroke-width: 1; stroke-dasharray: none; stroke-linecap: butt; stroke-dashoffset: 0; stroke-linejoin: miter; stroke-miterlimit: 4; is-custom-font: none; font-file-url: none; fill: rgb(255,255,255); fill-rule: nonzero; opacity: 1;" transform=" translate(-40.4997, -319.8335)" d="M 48.07 344.16 h 0 a 0.5 0.5 0 0 1 -0.48 -0.52 c 0.81 -19.5 -8.38 -41 -15.06 -47.3 a 0.49 0.49 0 0 1 0 -0.69 a 0.5 0.5 0 0 1 0.7 0 C 40 302 49.39 323.9 48.56 343.69 A 0.49 0.49 0 0 1 48.07 344.16 Z" stroke-linecap="round"/>
</g>
<g transform="matrix(1.8182 0 0 1.8182 114.5006 626.3)" id="freepik--plants--inject-45">
<path style="stroke: none; stroke-width: 1; stroke-dasharray: none; stroke-linecap: butt; stroke-dashoffset: 0; stroke-linejoin: miter; stroke-miterlimit: 4; is-custom-font: none; font-file-url: none; fill: rgb(255,255,255); fill-rule: nonzero; opacity: 1;" transform=" translate(-37.9753, -319.465)" d="M 45.15 321.11 l -0.15 0 a 66.53 66.53 0 0 0 -14.15 -2.29 a 0.49 0.49 0 1 1 0 -1 a 67.36 67.36 0 0 1 14.4 2.33 a 0.49 0.49 0 0 1 0.33 0.61 A 0.5 0.5 0 0 1 45.15 321.11 Z" stroke-linecap="round"/>
</g>
<g transform="matrix(1.8182 0 0 1.8182 765.391 688.7911)" id="freepik--Character--inject-45">
<polygon style="stroke: none; stroke-width: 1; stroke-dasharray: none; stroke-linecap: butt; stroke-dashoffset: 0; stroke-linejoin: miter; stroke-miterlimit: 4; is-custom-font: none; font-file-url: none; fill: rgb(177,102,104); fill-rule: nonzero; opacity: 1;" points="5.865,9.925 -3.455,8.855 -5.865,-9.925 5.525,-6.545 5.865,9.925 "/>
</g>
<g transform="matrix(1.8182 0 0 1.8182 759.0826 726.8475)" id="freepik--Character--inject-45">
<path style="stroke: none; stroke-width: 1; stroke-dasharray: none; stroke-linecap: butt; stroke-dashoffset: 0; stroke-linejoin: miter; stroke-miterlimit: 4; is-custom-font: none; font-file-url: none; fill: rgb(38,50,56); fill-rule: nonzero; opacity: 1;" transform=" translate(-392.4953, -374.766)" d="M 381.41 379.08 a 2.81 2.81 0 0 0 0.16 2.28 c 1 1.16 3.58 2.52 7.1 2.77 c 3.37 0.24 6.37 -0.21 8.34 -1.46 a 5.83 5.83 0 0 0 3.12 -4.56 c 0.19 -1.91 0 -3.76 0.89 -5.23 s 2.18 -2.9 2.47 -3.64 a 7.45 7.45 0 0 0 0 -3.9 Z" stroke-linecap="round"/>
</g>
<g transform="matrix(1.8182 0 0 1.8182 759.1124 719.1496)" id="freepik--Character--inject-45">
<path style="stroke: none; stroke-width: 1; stroke-dasharray: none; stroke-linecap: butt; stroke-dashoffset: 0; stroke-linejoin: miter; stroke-miterlimit: 4; is-custom-font: none; font-file-url: none; fill: rgb(69,90,100); fill-rule: nonzero; opacity: 1;" transform=" translate(-392.5117, -370.5321)" d="M 390.62 362.36 a 7.77 7.77 0 0 1 -0.39 2.13 a 19.56 19.56 0 0 1 -2.06 4.21 a 17.23 17.23 0 0 1 -1.4 2 c -1 1.21 -2.28 2.21 -3.36 3.37 a 6.9 6.9 0 0 0 -2.08 4.12 c -0.14 2.64 4.06 3.54 6.27 3.93 a 16.19 16.19 0 0 0 7.16 -0.36 a 6.57 6.57 0 0 0 4.82 -5.25 c 0.13 -0.74 0.08 -1.49 0.17 -2.22 a 10.35 10.35 0 0 1 2.05 -4.62 a 13.69 13.69 0 0 0 1.57 -2.51 c 0.69 -1.63 0.14 -3.47 -0.3 -5.09 c -0.38 -1.41 -0.84 -3 -1.34 -2.89 c 0 0.73 0 0.83 -0.49 1.32 s -0.68 1.57 -1.38 2.12 a 10.11 10.11 0 0 0 0.49 -1.88 a 1.05 1.05 0 0 0 -0.15 -0.74 a 2 2 0 0 0 -0.81 -0.44 a 16.68 16.68 0 0 0 -3.2 -0.73 a 19.66 19.66 0 0 0 -4.47 0 a 1.33 1.33 0 0 0 -0.79 0.46 a 1.63 1.63 0 0 0 -0.28 0.9 C 390.6 360.57 390.64 361.66 390.62 362.36 Z" stroke-linecap="round"/>
</g>
<g transform="matrix(1.8182 0 0 1.8182 759.9529 715.5832)" id="freepik--Character--inject-45">
<path style="stroke: none; stroke-width: 1; stroke-dasharray: none; stroke-linecap: butt; stroke-dashoffset: 0; stroke-linejoin: miter; stroke-miterlimit: 4; is-custom-font: none; font-file-url: none; fill: rgb(245,245,245); fill-rule: nonzero; opacity: 1;" transform=" translate(-392.974, -368.5707)" d="M 387.81 369.26 c 1 -0.74 4.53 -0.75 5.73 -0.62 a 7.26 7.26 0 0 1 3.42 1.2 a 0.78 0.78 0 0 0 1 -0.08 h 0 a 0.74 0.74 0 0 0 -0.08 -1.12 a 7.43 7.43 0 0 0 -3.84 -1.43 a 19.86 19.86 0 0 0 -5.18 0.3 S 387.52 368.38 387.81 369.26 Z" stroke-linecap="round"/>
</g>
<g transform="matrix(1.8182 0 0 1.8182 756.2267 720.8155)" id="freepik--Character--inject-45">
<path style="stroke: none; stroke-width: 1; stroke-dasharray: none; stroke-linecap: butt; stroke-dashoffset: 0; stroke-linejoin: miter; stroke-miterlimit: 4; is-custom-font: none; font-file-url: none; fill: rgb(245,245,245); fill-rule: nonzero; opacity: 1;" transform=" translate(-390.9246, -371.4485)" d="M 385.55 372 c 1.24 -0.73 5 -0.63 6.21 -0.5 a 6.83 6.83 0 0 1 3.32 1.27 a 0.79 0.79 0 0 0 1 -0.08 h 0 a 0.74 0.74 0 0 0 -0.08 -1.12 a 14.26 14.26 0 0 0 -5.27 -1.54 c -3 -0.21 -3.73 0.39 -3.73 0.39 A 2.49 2.49 0 0 0 385.55 372 Z" stroke-linecap="round"/>
</g>
<g transform="matrix(1.8182 0 0 1.8182 762.5919 710.2306)" id="freepik--Character--inject-45">
<path style="stroke: none; stroke-width: 1; stroke-dasharray: none; stroke-linecap: butt; stroke-dashoffset: 0; stroke-linejoin: miter; stroke-miterlimit: 4; is-custom-font: none; font-file-url: none; fill: rgb(245,245,245); fill-rule: nonzero; opacity: 1;" transform=" translate(-394.4255, -365.6268)" d="M 395.22 364.38 a 14.56 14.56 0 0 0 -5.06 0.31 c -0.52 0.29 -0.87 1.12 -0.53 1.33 a 14.22 14.22 0 0 1 4.64 -0.46 a 9.9 9.9 0 0 1 3.2 0.88 c 0.26 0.12 0.56 0.27 0.82 0.42 a 0.69 0.69 0 0 0 1 -0.3 h 0 a 0.66 0.66 0 0 0 -0.25 -0.85 A 9.55 9.55 0 0 0 395.22 364.38 Z" stroke-linecap="round"/>
</g>
<g transform="matrix(1.8182 0 0 1.8182 706.7546 672.7821)" id="freepik--Character--inject-45">
<polygon style="stroke: none; stroke-width: 1; stroke-dasharray: none; stroke-linecap: butt; stroke-dashoffset: 0; stroke-linejoin: miter; stroke-miterlimit: 4; is-custom-font: none; font-file-url: none; fill: rgb(177,102,104); fill-rule: nonzero; opacity: 1;" points="3.365,10.19 -5.495,7.72 -5.495,-10.19 5.495,-9.71 3.365,10.19 "/>
</g>
<g transform="matrix(1.8182 0 0 1.8182 691.0413 707.751)" id="freepik--Character--inject-45">
<path style="stroke: none; stroke-width: 1; stroke-dasharray: none; stroke-linecap: butt; stroke-dashoffset: 0; stroke-linejoin: miter; stroke-miterlimit: 4; is-custom-font: none; font-file-url: none; fill: rgb(38,50,56); fill-rule: nonzero; opacity: 1;" transform=" translate(-355.0726, -364.263)" d="M 339.5 364.81 a 3.27 3.27 0 0 0 0.13 2.35 c 0.33 0.68 3.92 2.71 8.76 2.38 a 20.22 20.22 0 0 0 10 -3.5 c 1.84 -1.22 3.76 -1.45 6.16 -1.58 s 5.54 -1.34 6.07 -2.46 a 5.35 5.35 0 0 0 -0.08 -3.05 Z" stroke-linecap="round"/>
</g>
<g transform="matrix(1.8182 0 0 1.8182 690.8792 697.3023)" id="freepik--Character--inject-45">
<path style="stroke: none; stroke-width: 1; stroke-dasharray: none; stroke-linecap: butt; stroke-dashoffset: 0; stroke-linejoin: miter; stroke-miterlimit: 4; is-custom-font: none; font-file-url: none; fill: rgb(69,90,100); fill-rule: nonzero; opacity: 1;" transform=" translate(-354.9834, -358.5162)" d="M 359 349.71 l -0.38 -0.08 a 1.39 1.39 0 0 0 -0.64 0 a 1.35 1.35 0 0 0 -0.6 0.4 a 11.88 11.88 0 0 0 -1.23 1.95 c -1 1.65 -3.15 3 -5.47 4.27 c -1.58 0.85 -3.13 1.51 -4.76 2.24 s -3.88 1.21 -5.18 2.09 c -1.9 1.28 -2.15 4.49 0 5.76 c 1.86 1.1 6.78 2.29 11.93 0.83 c 2.8 -0.8 5.92 -3.79 9.6 -4.08 c 2.34 -0.19 6.77 -0.84 8.28 -2.62 c 0.56 -0.79 -0.19 -3.29 -0.8 -5.45 c -0.67 -2.36 -1.3 -6 -2.08 -5.83 a 1.06 1.06 0 0 1 -0.41 0.88 c -0.29 0.3 -0.68 0.49 -1 0.76 a 6.15 6.15 0 0 0 -1.3 1.87 a 1.41 1.41 0 0 1 -0.66 0.72 c -0.4 0.14 -0.69 -0.1 -1 -0.26 a 2 2 0 0 0 -1.4 -0.1 a 9.42 9.42 0 0 1 0.25 -1.39 a 0.74 0.74 0 0 0 0 -0.44 a 0.66 0.66 0 0 0 -0.3 -0.34 A 7.43 7.43 0 0 0 359 349.71 Z" stroke-linecap="round"/>
</g>
<g transform="matrix(1.8182 0 0 1.8182 692.6973 691.4823)" id="freepik--Character--inject-45">
<path style="stroke: none; stroke-width: 1; stroke-dasharray: none; stroke-linecap: butt; stroke-dashoffset: 0; stroke-linejoin: miter; stroke-miterlimit: 4; is-custom-font: none; font-file-url: none; fill: rgb(245,245,245); fill-rule: nonzero; opacity: 1;" transform=" translate(-355.9835, -355.3152)" d="M 352.9 354.94 a 2.16 2.16 0 0 1 1.73 -1.16 c 1.06 -0.2 2.94 0.59 4.11 1.55 a 0.87 0.87 0 0 1 -0.12 1.44 h 0 a 0.86 0.86 0 0 1 -1 -0.11 A 6.7 6.7 0 0 0 352.9 354.94 Z" stroke-linecap="round"/>
</g>
<g transform="matrix(1.8182 0 0 1.8182 687.3147 695.1444)" id="freepik--Character--inject-45">
<path style="stroke: none; stroke-width: 1; stroke-dasharray: none; stroke-linecap: butt; stroke-dashoffset: 0; stroke-linejoin: miter; stroke-miterlimit: 4; is-custom-font: none; font-file-url: none; fill: rgb(245,245,245); fill-rule: nonzero; opacity: 1;" transform=" translate(-353.0231, -357.3294)" d="M 349.59 356.79 a 2.51 2.51 0 0 1 2.05 -1.06 a 7.78 7.78 0 0 1 4.51 1.69 a 0.85 0.85 0 0 1 -0.12 1.39 h 0 a 0.83 0.83 0 0 1 -1 -0.11 A 6.7 6.7 0 0 0 349.59 356.79 Z" stroke-linecap="round"/>
</g>
<g transform="matrix(1.8182 0 0 1.8182 680.6781 698.3806)" id="freepik--Character--inject-45">
<path style="stroke: none; stroke-width: 1; stroke-dasharray: none; stroke-linecap: butt; stroke-dashoffset: 0; stroke-linejoin: miter; stroke-miterlimit: 4; is-custom-font: none; font-file-url: none; fill: rgb(245,245,245); fill-rule: nonzero; opacity: 1;" transform=" translate(-349.3729, -359.1093)" d="M 346 358.45 a 2.78 2.78 0 0 1 2.12 -0.95 a 7.53 7.53 0 0 1 4.32 1.7 a 0.86 0.86 0 0 1 -0.12 1.4 h 0 a 0.83 0.83 0 0 1 -1 -0.11 A 6.39 6.39 0 0 0 346 358.45 Z" stroke-linecap="round"/>
</g>
<g transform="matrix(1.8182 0 0 1.8182 735.6224 575.4182)" id="freepik--Character--inject-45">
<path style="stroke: none; stroke-width: 1; stroke-dasharray: none; stroke-linecap: butt; stroke-dashoffset: 0; stroke-linejoin: miter; stroke-miterlimit: 4; is-custom-font: none; font-file-url: none; fill: rgb(241,80,51); fill-rule: nonzero; opacity: 1;" transform=" translate(-379.5921, -291.4794)" d="M 399.79 238.37 c 0.61 18.47 0.65 58.47 0.65 58.47 c 0.19 2.3 0.39 6.38 0.56 14.66 c 0.25 12 0.83 41.63 0.83 41.63 s -5.73 2.69 -11 0.5 c 0 0 -7.32 -41.66 -8.82 -53.54 c -1.31 -10.37 -3.82 -34.69 -3.82 -34.69 l -3.46 30.87 s 0 8 -0.47 15.06 c -0.39 5.5 -5.73 33.83 -5.73 33.83 a 18.36 18.36 0 0 1 -10.59 -0.35 s -0.48 -43.49 -0.58 -48.54 c -0.11 -5.74 1.37 -67.8 1.37 -67.8 Z" stroke-linecap="round"/>
</g>
<g transform="matrix(1.8182 0 0 1.8182 721.091 541.5823)" id="freepik--Character--inject-45">
<path style="stroke: none; stroke-width: 1; stroke-dasharray: none; stroke-linecap: butt; stroke-dashoffset: 0; stroke-linejoin: miter; stroke-miterlimit: 4; is-custom-font: none; font-file-url: none; fill: rgb(55,71,79); fill-rule: nonzero; opacity: 1;" transform=" translate(-371.6, -272.87)" d="M 378.21 265.4 l -1.32 -10.47 a 36.59 36.59 0 0 1 -11.9 -5.46 s 2.54 3.4 10 7 l 1.68 9.5 l -1.9 30.3 Z" stroke-linecap="round"/>
</g>
<g transform="matrix(1.8182 0 0 1.8182 656.7915 413.6086)" id="freepik--Character--inject-45">
<path style="stroke: none; stroke-width: 1; stroke-dasharray: none; stroke-linecap: butt; stroke-dashoffset: 0; stroke-linejoin: miter; stroke-miterlimit: 4; is-custom-font: none; font-file-url: none; fill: rgb(177,102,104); fill-rule: nonzero; opacity: 1;" transform=" translate(-336.235, -202.4845)" d="M 358.26 186.54 c -2.7 3.54 -16.59 22.6 -16.59 22.6 l -12.83 -9.94 c -3 -2.35 -3.89 -5.43 -5.77 -7.56 s -3.94 -2.64 -6.05 -4.42 s -2.92 -3.13 -3.64 -1.61 s 1.61 4.17 2 4.81 s 2.8 2.17 -0.38 2 s -9.3 -3.8 -10.78 -4.47 s -1.52 1.16 -0.82 2.36 s 0.35 4.54 1.17 6.69 s 2.26 3.47 5.19 4.92 c 2.73 1.36 9.37 2.21 11.53 3.57 h 0 c 4.74 4.86 13.68 13.93 15.94 15.61 c 3.11 2.31 6.12 4.44 10.88 -0.14 s 18.55 -22.55 18.55 -22.55 l 2.85 -17.09 C 364.83 181.15 361.52 182.27 358.26 186.54 Z" stroke-linecap="round"/>
</g>
<g transform="matrix(1.8182 0 0 1.8182 670.0909 429.8001)" id="freepik--Character--inject-45">
<path style="stroke: none; stroke-width: 1; stroke-dasharray: none; stroke-linecap: butt; stroke-dashoffset: 0; stroke-linejoin: miter; stroke-miterlimit: 4; is-custom-font: none; font-file-url: none; fill: rgb(154,74,77); fill-rule: nonzero; opacity: 1;" transform=" translate(-343.55, -211.39)" d="M 341.67 209.14 c 1.76 1.3 3.59 4.22 3.76 5.53 a 9 9 0 0 0 -3 -6.56 Z" stroke-linecap="round"/>
</g>
<g transform="matrix(1.8182 0 0 1.8182 696.2093 402.7636)" id="freepik--Character--inject-45">
<path style="stroke: none; stroke-width: 1; stroke-dasharray: none; stroke-linecap: butt; stroke-dashoffset: 0; stroke-linejoin: miter; stroke-miterlimit: 4; is-custom-font: none; font-file-url: none; fill: rgb(204,233,255); fill-rule: nonzero; opacity: 1;" transform=" translate(-357.915, -196.5198)" d="M 370.61 180.9 s -6.6 -0.08 -9.5 1.95 s -5.05 5 -9.76 11.85 c -4.13 6 -6.13 8.88 -6.13 8.88 a 22.14 22.14 0 0 0 11.21 8.56 l 12.32 -15.26 Z" stroke-linecap="round"/>
</g>
<g transform="matrix(1.8182 0 0 1.8182 737.8001 432.0158)" id="freepik--Character--inject-45">
<path style="stroke: none; stroke-width: 1; stroke-dasharray: none; stroke-linecap: butt; stroke-dashoffset: 0; stroke-linejoin: miter; stroke-miterlimit: 4; is-custom-font: none; font-file-url: none; fill: rgb(14,83,140); fill-rule: nonzero; opacity: 1;" transform=" translate(-380.7898, -212.6084)" d="M 383.38 180.58 c 3.74 0.36 9 0.4 12.7 0.78 c 2.57 1.06 7.53 5.38 7.16 8.46 c -1.38 11.51 -4.17 30.38 -4.17 30.38 l 0.92 20 c -5.15 5.14 -29.25 7.15 -41.67 -1.07 c 0 0 0.4 -35.92 1.26 -42 c 1.53 -10.89 2.87 -14.93 8.49 -15.89 S 383.38 180.58 383.38 180.58 Z" stroke-linecap="round"/>
</g>
<g transform="matrix(1.8182 0 0 1.8182 821.0993 414.1285)" id="freepik--Character--inject-45">
<path style="stroke: none; stroke-width: 1; stroke-dasharray: none; stroke-linecap: butt; stroke-dashoffset: 0; stroke-linejoin: miter; stroke-miterlimit: 4; is-custom-font: none; font-file-url: none; fill: rgb(177,102,104); fill-rule: nonzero; opacity: 1;" transform=" translate(-426.6043, -202.7705)" d="M 404.56 186.83 c 2.7 3.54 16.6 22.6 16.6 22.6 L 434 199.49 c 3 -2.36 3.89 -5.44 5.77 -7.56 s 3.94 -2.64 6.05 -4.42 s 2.92 -3.13 3.64 -1.62 s -1.61 4.18 -2 4.82 s -2.8 2.17 0.38 2 s 9.29 -3.81 10.78 -4.48 s 1.51 1.16 0.82 2.36 s -0.36 4.55 -1.17 6.7 s -2.26 3.46 -5.19 4.92 c -2.73 1.36 -9.37 2.21 -11.53 3.57 h 0 c -4.74 4.85 -13.68 13.93 -15.94 15.6 c -3.11 2.31 -6.12 4.44 -10.88 -0.13 s -15.64 -18.8 -15.64 -18.8 l -5.76 -20.84 C 398 181.44 401.31 182.56 404.56 186.83 Z" stroke-linecap="round"/>
</g>
<g transform="matrix(1.8182 0 0 1.8182 807.7818 430.3183)" id="freepik--Character--inject-45">
<path style="stroke: none; stroke-width: 1; stroke-dasharray: none; stroke-linecap: butt; stroke-dashoffset: 0; stroke-linejoin: miter; stroke-miterlimit: 4; is-custom-font: none; font-file-url: none; fill: rgb(154,74,77); fill-rule: nonzero; opacity: 1;" transform=" translate(-419.28, -211.675)" d="M 421.16 209.43 c -1.76 1.3 -3.59 4.22 -3.76 5.53 a 9 9 0 0 1 3 -6.57 Z" stroke-linecap="round"/>
</g>
<g transform="matrix(1.8182 0 0 1.8182 780.9789 403.1722)" id="freepik--Character--inject-45">
<path style="stroke: none; stroke-width: 1; stroke-dasharray: none; stroke-linecap: butt; stroke-dashoffset: 0; stroke-linejoin: miter; stroke-miterlimit: 4; is-custom-font: none; font-file-url: none; fill: rgb(204,233,255); fill-rule: nonzero; opacity: 1;" transform=" translate(-404.5383, -196.7445)" d="M 392.67 181.11 s 5.93 -0.37 9.05 2 c 2.81 2.16 5 5 9.76 11.85 c 4.13 6 6.13 8.88 6.13 8.88 a 22.2 22.2 0 0 1 -11.22 8.56 L 398 202.06 C 393.63 196.52 389.3 188.09 392.67 181.11 Z" stroke-linecap="round"/>
</g>
<g transform="matrix(1.8182 0 0 1.8182 723.1101 324.7267)" id="freepik--Character--inject-45">
<path style="stroke: none; stroke-width: 1; stroke-dasharray: none; stroke-linecap: butt; stroke-dashoffset: 0; stroke-linejoin: miter; stroke-miterlimit: 4; is-custom-font: none; font-file-url: none; fill: rgb(38,50,56); fill-rule: nonzero; opacity: 1;" transform=" translate(-372.7104, -153.5996)" d="M 384.31 153.5 a 11.6 11.6 0 1 1 -11.7 -11.5 A 11.6 11.6 0 0 1 384.31 153.5 Z" stroke-linecap="round"/>
</g>
<g transform="matrix(1.8182 0 0 1.8182 755.3091 350.5001)" id="freepik--Character--inject-45">
<path style="stroke: none; stroke-width: 1; stroke-dasharray: none; stroke-linecap: butt; stroke-dashoffset: 0; stroke-linejoin: miter; stroke-miterlimit: 4; is-custom-font: none; font-file-url: none; fill: rgb(38,50,56); fill-rule: nonzero; opacity: 1;" transform=" translate(-390.42, -167.775)" d="M 392.84 161.68 s -1.81 8.85 -2.55 10.3 a 4 4 0 0 1 -2.29 1.89 l 0.07 -6.22 Z" stroke-linecap="round"/>
</g>
<g transform="matrix(1.8182 0 0 1.8182 758.2738 328.3044)" id="freepik--Character--inject-45">
<path style="stroke: none; stroke-width: 1; stroke-dasharray: none; stroke-linecap: butt; stroke-dashoffset: 0; stroke-linejoin: miter; stroke-miterlimit: 4; is-custom-font: none; font-file-url: none; fill: rgb(38,50,56); fill-rule: nonzero; opacity: 1;" transform=" translate(-392.0506, -155.5674)" d="M 390.37 149.05 a 4.33 4.33 0 0 1 3.61 1.23 c 1.56 1.57 0.74 6.53 -1.14 11.4 l -3.54 0.44 Z" stroke-linecap="round"/>
</g>
<g transform="matrix(1.8182 0 0 1.8182 735.838 345.6772)" id="freepik--Character--inject-45">
<path style="stroke: none; stroke-width: 1; stroke-dasharray: none; stroke-linecap: butt; stroke-dashoffset: 0; stroke-linejoin: miter; stroke-miterlimit: 4; is-custom-font: none; font-file-url: none; fill: rgb(177,102,104); fill-rule: nonzero; opacity: 1;" transform=" translate(-379.7107, -165.1222)" d="M 388.24 162.13 c 0.71 0.42 1.71 -1 2.58 -1.88 s 3.71 -2.2 5.17 0.79 s -1.2 7.12 -3.44 7.84 c -3.87 1.26 -4.48 -1.23 -4.48 -1.23 l -0.16 14.42 h 0 c -4.76 6.23 -18.15 5.82 -12.63 -0.68 l 0 -4.26 a 24.52 24.52 0 0 1 -5.22 0.31 c -2.86 -0.41 -4.67 -2.65 -5.57 -5.73 c -1.43 -4.94 -2 -8.94 -0.9 -18.71 c 1.2 -10.7 13.63 -10.92 20.38 -6.75 S 388.24 162.13 388.24 162.13 Z" stroke-linecap="round"/>
</g>
<g transform="matrix(1.8182 0 0 1.8182 729.7123 321.445)" id="freepik--Character--inject-45">
<path style="stroke: none; stroke-width: 1; stroke-dasharray: none; stroke-linecap: butt; stroke-dashoffset: 0; stroke-linejoin: miter; stroke-miterlimit: 4; is-custom-font: none; font-file-url: none; fill: rgb(38,50,56); fill-rule: nonzero; opacity: 1;" transform=" translate(-376.3416, -151.7946)" d="M 388.25 163.32 c 0.35 0 1.69 -2.26 2.57 -3.07 c 1.21 -1.13 -0.45 -11.2 -0.45 -11.2 a 4.9 4.9 0 0 0 -0.9 -5.45 c -1.69 -1.83 -4.05 -4.06 -11.65 -3.1 c -5.43 0.69 -11.32 2.44 -16.11 0.14 a 8.13 8.13 0 0 0 2.9 8.6 s 1.74 1.1 6.29 1.61 a 67.39 67.39 0 0 0 12.58 -0.35 c 1.32 -0.19 1.61 1.08 2.35 4.57 C 386.48 158.12 387.05 163.31 388.25 163.32 Z" stroke-linecap="round"/>
</g>
<g transform="matrix(1.8182 0 0 1.8182 758.844 314.5279)" id="freepik--Character--inject-45">
<path style="stroke: none; stroke-width: 1; stroke-dasharray: none; stroke-linecap: butt; stroke-dashoffset: 0; stroke-linejoin: miter; stroke-miterlimit: 4; is-custom-font: none; font-file-url: none; fill: rgb(38,50,56); fill-rule: nonzero; opacity: 1;" transform=" translate(-392.3642, -147.9904)" d="M 390.37 149.83 l 4.27 -2.34 a 2.36 2.36 0 0 0 -3.26 -1.05 A 2.56 2.56 0 0 0 390.37 149.83 Z" stroke-linecap="round"/>
</g>
<g transform="matrix(1.8182 0 0 1.8182 738.291 363.9455)" id="freepik--Character--inject-45">
<path style="stroke: none; stroke-width: 1; stroke-dasharray: none; stroke-linecap: butt; stroke-dashoffset: 0; stroke-linejoin: miter; stroke-miterlimit: 4; is-custom-font: none; font-file-url: none; fill: rgb(154,74,77); fill-rule: nonzero; opacity: 1;" transform=" translate(-381.06, -175.17)" d="M 375.25 177.13 s 6.36 -1.34 8.57 -2.54 a 7.32 7.32 0 0 0 3.05 -3.07 a 10 10 0 0 1 -1.71 3.6 c -1.61 2.1 -9.89 3.7 -9.89 3.7 Z" stroke-linecap="round"/>
</g>
<g transform="matrix(1.8182 0 0 1.8182 729.218 338.3471)" id="freepik--Character--inject-45">
<path style="stroke: none; stroke-width: 1; stroke-dasharray: none; stroke-linecap: butt; stroke-dashoffset: 0; stroke-linejoin: miter; stroke-miterlimit: 4; is-custom-font: none; font-file-url: none; fill: rgb(38,50,56); fill-rule: nonzero; opacity: 1;" transform=" translate(-376.0699, -161.0909)" d="M 374.74 161.11 a 1.29 1.29 0 0 0 1.28 1.31 a 1.33 1.33 0 1 0 -1.28 -1.31 Z" stroke-linecap="round"/>
</g>
<g transform="matrix(1.8182 0 0 1.8182 730.9901 330.1011)" id="freepik--Character--inject-45">
<path style="stroke: none; stroke-width: 1; stroke-dasharray: none; stroke-linecap: butt; stroke-dashoffset: 0; stroke-linejoin: miter; stroke-miterlimit: 4; is-custom-font: none; font-file-url: none; fill: rgb(38,50,56); fill-rule: nonzero; opacity: 1;" transform=" translate(-377.0445, -156.5556)" d="M 378.53 156.72 l -2.84 -1.29 a 1.64 1.64 0 0 0 0.8 2.12 A 1.53 1.53 0 0 0 378.53 156.72 Z" stroke-linecap="round"/>
</g>
<g transform="matrix(1.8182 0 0 1.8182 709.6324 329.8915)" id="freepik--Character--inject-45">
<path style="stroke: none; stroke-width: 1; stroke-dasharray: none; stroke-linecap: butt; stroke-dashoffset: 0; stroke-linejoin: miter; stroke-miterlimit: 4; is-custom-font: none; font-file-url: none; fill: rgb(38,50,56); fill-rule: nonzero; opacity: 1;" transform=" translate(-365.2978, -156.4403)" d="M 366.38 155.15 l -2.47 1.94 a 1.49 1.49 0 0 0 2.16 0.31 A 1.66 1.66 0 0 0 366.38 155.15 Z" stroke-linecap="round"/>
</g>
<g transform="matrix(1.8182 0 0 1.8182 711.1072 337.7091)" id="freepik--Character--inject-45">
<path style="stroke: none; stroke-width: 1; stroke-dasharray: none; stroke-linecap: butt; stroke-dashoffset: 0; stroke-linejoin: miter; stroke-miterlimit: 4; is-custom-font: none; font-file-url: none; fill: rgb(38,50,56); fill-rule: nonzero; opacity: 1;" transform=" translate(-366.1089, -160.74)" d="M 364.89 160.8 a 1.22 1.22 0 1 0 1.21 -1.28 A 1.24 1.24 0 0 0 364.89 160.8 Z" stroke-linecap="round"/>
</g>
<g transform="matrix(1.8182 0 0 1.8182 716.6819 342.9001)" id="freepik--Character--inject-45">
<polygon style="stroke: none; stroke-width: 1; stroke-dasharray: none; stroke-linecap: butt; stroke-dashoffset: 0; stroke-linejoin: miter; stroke-miterlimit: 4; is-custom-font: none; font-file-url: none; fill: rgb(154,74,77); fill-rule: nonzero; opacity: 1;" points="2.335,-3.825 1.615,3.825 -2.335,2.305 2.335,-3.825 "/>
</g>
<g transform="matrix(1.8182 0 0 1.8182 727.1091 355.091)" id="freepik--Character--inject-45">
<path style="stroke: none; stroke-width: 1; stroke-dasharray: none; stroke-linecap: butt; stroke-dashoffset: 0; stroke-linejoin: miter; stroke-miterlimit: 4; is-custom-font: none; font-file-url: none; fill: rgb(154,74,77); fill-rule: nonzero; opacity: 1;" transform=" translate(-374.91, -170.3)" d="M 373.68 170.29 a 1.23 1.23 0 1 0 1.23 -1.22 A 1.23 1.23 0 0 0 373.68 170.29 Z" stroke-linecap="round"/>
</g>
<g transform="matrix(1.8182 0 0 1.8182 776.321 246.8958)" id="freepik--question-marks--inject-45">
<path style="stroke: none; stroke-width: 1; stroke-dasharray: none; stroke-linecap: butt; stroke-dashoffset: 0; stroke-linejoin: miter; stroke-miterlimit: 4; is-custom-font: none; font-file-url: none; fill: rgb(241,80,51); fill-rule: nonzero; opacity: 1;" transform=" translate(-401.9764, -110.7925)" d="M 404.9 88.82 a 20.89 20.89 0 0 1 5.46 2.05 a 15.67 15.67 0 0 1 4.34 3.45 A 12.37 12.37 0 0 1 417.26 99 a 11 11 0 0 1 0.12 5.62 a 11.35 11.35 0 0 1 -1.72 4.11 a 13.43 13.43 0 0 1 -2.69 2.83 a 21.92 21.92 0 0 1 -3.21 2.07 l -3.18 1.68 a 17.43 17.43 0 0 0 -2.72 1.76 a 5.15 5.15 0 0 0 -1.7 2.27 a 2.37 2.37 0 0 1 -0.81 1 a 1.43 1.43 0 0 1 -1.22 0.25 l -4.68 -1 a 1.73 1.73 0 0 1 -1.1 -0.76 a 1.42 1.42 0 0 1 -0.2 -1.27 a 11.15 11.15 0 0 1 2 -4 a 15.74 15.74 0 0 1 2.88 -2.78 a 22.54 22.54 0 0 1 3.29 -2 c 1.14 -0.57 2.2 -1.12 3.18 -1.66 a 13.89 13.89 0 0 0 2.51 -1.7 a 4 4 0 0 0 1.33 -2.2 a 4.77 4.77 0 0 0 -1.12 -4.28 a 8.58 8.58 0 0 0 -4.91 -2.67 q -5.24 -1.17 -8.86 3.53 a 3.23 3.23 0 0 1 -0.87 0.87 a 1.57 1.57 0 0 1 -1.21 0.09 l -5 -1.11 a 1.35 1.35 0 0 1 -0.87 -0.58 a 1.27 1.27 0 0 1 -0.19 -1.07 a 9.78 9.78 0 0 1 2.3 -4.11 a 15.48 15.48 0 0 1 4.29 -3.32 a 18.43 18.43 0 0 1 5.65 -1.88 A 16.42 16.42 0 0 1 404.9 88.82 Z m -5.28 35.54 a 1.63 1.63 0 0 1 1.06 0.76 a 1.65 1.65 0 0 1 0.23 1.28 l -1.2 5.42 a 1.71 1.71 0 0 1 -2 1.29 l -5.3 -1.17 a 1.65 1.65 0 0 1 -1.06 -0.75 a 1.62 1.62 0 0 1 -0.23 -1.28 l 1.2 -5.43 a 1.71 1.71 0 0 1 2 -1.29 Z" stroke-linecap="round"/>
</g>
<g transform="matrix(1.8182 0 0 1.8182 812.5135 327.5901)" id="freepik--question-marks--inject-45">
<path style="stroke: none; stroke-width: 1; stroke-dasharray: none; stroke-linecap: butt; stroke-dashoffset: 0; stroke-linejoin: miter; stroke-miterlimit: 4; is-custom-font: none; font-file-url: none; fill: rgb(241,80,51); fill-rule: nonzero; opacity: 1;" transform=" translate(-421.8823, -155.1744)" d="M 420.62 139.81 a 14 14 0 0 1 4 -0.08 a 10.81 10.81 0 0 1 3.67 1.1 a 8.54 8.54 0 0 1 2.82 2.32 a 7.5 7.5 0 0 1 1.51 3.57 a 7.65 7.65 0 0 1 0 3.07 a 9.21 9.21 0 0 1 -1 2.51 a 15.59 15.59 0 0 1 -1.52 2.14 l -1.61 1.9 a 13.05 13.05 0 0 0 -1.3 1.82 a 3.58 3.58 0 0 0 -0.5 1.89 a 1.65 1.65 0 0 1 -0.26 0.88 a 1 1 0 0 1 -0.71 0.47 l -3.27 0.54 a 1.23 1.23 0 0 1 -0.9 -0.21 a 1 1 0 0 1 -0.45 -0.76 a 7.44 7.44 0 0 1 0.23 -3.06 a 10.16 10.16 0 0 1 1.13 -2.53 a 15.53 15.53 0 0 1 1.59 -2.13 c 0.59 -0.66 1.12 -1.28 1.62 -1.88 a 9.77 9.77 0 0 0 1.17 -1.73 a 2.76 2.76 0 0 0 0.29 -1.75 a 3.29 3.29 0 0 0 -1.82 -2.46 a 5.86 5.86 0 0 0 -3.82 -0.46 a 5.73 5.73 0 0 0 -4.78 4.53 a 2.34 2.34 0 0 1 -0.34 0.79 a 1.11 1.11 0 0 1 -0.75 0.36 l -3.48 0.57 a 1 1 0 0 1 -0.71 -0.15 a 0.89 0.89 0 0 1 -0.4 -0.64 a 6.75 6.75 0 0 1 0.43 -3.22 a 10.48 10.48 0 0 1 1.9 -3.23 a 12.79 12.79 0 0 1 3.14 -2.65 A 11.38 11.38 0 0 1 420.62 139.81 Z M 426.33 164 a 1.16 1.16 0 0 1 0.88 0.21 a 1.15 1.15 0 0 1 0.47 0.76 l 0.62 3.78 a 1.16 1.16 0 0 1 -0.21 0.88 a 1.12 1.12 0 0 1 -0.76 0.47 l -3.7 0.61 a 1.15 1.15 0 0 1 -0.87 -0.21 a 1.12 1.12 0 0 1 -0.48 -0.76 l -0.62 -3.79 a 1.19 1.19 0 0 1 1 -1.35 Z" stroke-linecap="round"/>
</g>
<g transform="matrix(1.8182 0 0 1.8182 812.5135 327.5901)" id="freepik--question-marks--inject-45">
<path style="stroke: none; stroke-width: 1; stroke-dasharray: none; stroke-linecap: butt; stroke-dashoffset: 0; stroke-linejoin: miter; stroke-miterlimit: 4; is-custom-font: none; font-file-url: none; fill: rgb(0,0,0); fill-rule: nonzero; opacity: 0.2;" transform=" translate(-421.8823, -155.1744)" d="M 420.62 139.81 a 14 14 0 0 1 4 -0.08 a 10.81 10.81 0 0 1 3.67 1.1 a 8.54 8.54 0 0 1 2.82 2.32 a 7.5 7.5 0 0 1 1.51 3.57 a 7.65 7.65 0 0 1 0 3.07 a 9.21 9.21 0 0 1 -1 2.51 a 15.59 15.59 0 0 1 -1.52 2.14 l -1.61 1.9 a 13.05 13.05 0 0 0 -1.3 1.82 a 3.58 3.58 0 0 0 -0.5 1.89 a 1.65 1.65 0 0 1 -0.26 0.88 a 1 1 0 0 1 -0.71 0.47 l -3.27 0.54 a 1.23 1.23 0 0 1 -0.9 -0.21 a 1 1 0 0 1 -0.45 -0.76 a 7.44 7.44 0 0 1 0.23 -3.06 a 10.16 10.16 0 0 1 1.13 -2.53 a 15.53 15.53 0 0 1 1.59 -2.13 c 0.59 -0.66 1.12 -1.28 1.62 -1.88 a 9.77 9.77 0 0 0 1.17 -1.73 a 2.76 2.76 0 0 0 0.29 -1.75 a 3.29 3.29 0 0 0 -1.82 -2.46 a 5.86 5.86 0 0 0 -3.82 -0.46 a 5.73 5.73 0 0 0 -4.78 4.53 a 2.34 2.34 0 0 1 -0.34 0.79 a 1.11 1.11 0 0 1 -0.75 0.36 l -3.48 0.57 a 1 1 0 0 1 -0.71 -0.15 a 0.89 0.89 0 0 1 -0.4 -0.64 a 6.75 6.75 0 0 1 0.43 -3.22 a 10.48 10.48 0 0 1 1.9 -3.23 a 12.79 12.79 0 0 1 3.14 -2.65 A 11.38 11.38 0 0 1 420.62 139.81 Z M 426.33 164 a 1.16 1.16 0 0 1 0.88 0.21 a 1.15 1.15 0 0 1 0.47 0.76 l 0.62 3.78 a 1.16 1.16 0 0 1 -0.21 0.88 a 1.12 1.12 0 0 1 -0.76 0.47 l -3.7 0.61 a 1.15 1.15 0 0 1 -0.87 -0.21 a 1.12 1.12 0 0 1 -0.48 -0.76 l -0.62 -3.79 a 1.19 1.19 0 0 1 1 -1.35 Z" stroke-linecap="round"/>
</g>
<g transform="matrix(1.8182 0 0 1.8182 884.0158 299.672)" id="freepik--question-marks--inject-45">
<path style="stroke: none; stroke-width: 1; stroke-dasharray: none; stroke-linecap: butt; stroke-dashoffset: 0; stroke-linejoin: miter; stroke-miterlimit: 4; is-custom-font: none; font-file-url: none; fill: rgb(241,80,51); fill-rule: nonzero; opacity: 1;" transform=" translate(-461.2085, -139.8194)" d="M 454.72 150.54 a 1.41 1.41 0 0 1 0.33 1.94 l -2.64 3.7 a 1.41 1.41 0 0 1 -1.94 0.33 l -3.62 -2.57 a 1.35 1.35 0 0 1 -0.56 -0.9 a 1.4 1.4 0 0 1 0.23 -1 l 2.64 -3.71 a 1.39 1.39 0 0 1 0.9 -0.56 a 1.37 1.37 0 0 1 1 0.24 Z M 470 125.45 a 16.58 16.58 0 0 1 3.46 3.28 a 12.85 12.85 0 0 1 2.17 4 a 10.15 10.15 0 0 1 0.45 4.31 a 9 9 0 0 1 -1.7 4.27 a 9.33 9.33 0 0 1 -2.6 2.55 a 10.87 10.87 0 0 1 -2.94 1.27 a 18 18 0 0 1 -3.07 0.54 l -2.94 0.25 a 15.81 15.81 0 0 0 -2.6 0.46 a 4.28 4.28 0 0 0 -2 1.18 a 2.11 2.11 0 0 1 -0.94 0.53 a 1.2 1.2 0 0 1 -1 -0.21 l -3.2 -2.27 a 1.45 1.45 0 0 1 -0.58 -0.92 a 1.16 1.16 0 0 1 0.25 -1 a 9 9 0 0 1 2.75 -2.39 a 12.32 12.32 0 0 1 3.06 -1.18 a 18.7 18.7 0 0 1 3.12 -0.48 c 1 -0.06 2 -0.14 2.92 -0.23 a 11 11 0 0 0 2.43 -0.49 a 3.23 3.23 0 0 0 1.7 -1.23 a 3.87 3.87 0 0 0 0.52 -3.58 a 7 7 0 0 0 -2.84 -3.57 q -3.57 -2.55 -7.8 -0.17 a 2.8 2.8 0 0 1 -0.93 0.38 a 1.3 1.3 0 0 1 -0.95 -0.32 l -3.4 -2.42 a 1.15 1.15 0 0 1 -0.48 -0.72 a 1.06 1.06 0 0 1 0.21 -0.86 a 7.93 7.93 0 0 1 3 -2.37 a 12.69 12.69 0 0 1 4.29 -1.13 a 15.31 15.31 0 0 1 4.85 0.38 A 13.32 13.32 0 0 1 470 125.45 Z" stroke-linecap="round"/>
</g>
<g transform="matrix(1.8182 0 0 1.8182 884.0158 299.672)" id="freepik--question-marks--inject-45">
<path style="stroke: none; stroke-width: 1; stroke-dasharray: none; stroke-linecap: butt; stroke-dashoffset: 0; stroke-linejoin: miter; stroke-miterlimit: 4; is-custom-font: none; font-file-url: none; fill: rgb(255,255,255); fill-rule: nonzero; opacity: 0.6;" transform=" translate(-461.2085, -139.8194)" d="M 454.72 150.54 a 1.41 1.41 0 0 1 0.33 1.94 l -2.64 3.7 a 1.41 1.41 0 0 1 -1.94 0.33 l -3.62 -2.57 a 1.35 1.35 0 0 1 -0.56 -0.9 a 1.4 1.4 0 0 1 0.23 -1 l 2.64 -3.71 a 1.39 1.39 0 0 1 0.9 -0.56 a 1.37 1.37 0 0 1 1 0.24 Z M 470 125.45 a 16.58 16.58 0 0 1 3.46 3.28 a 12.85 12.85 0 0 1 2.17 4 a 10.15 10.15 0 0 1 0.45 4.31 a 9 9 0 0 1 -1.7 4.27 a 9.33 9.33 0 0 1 -2.6 2.55 a 10.87 10.87 0 0 1 -2.94 1.27 a 18 18 0 0 1 -3.07 0.54 l -2.94 0.25 a 15.81 15.81 0 0 0 -2.6 0.46 a 4.28 4.28 0 0 0 -2 1.18 a 2.11 2.11 0 0 1 -0.94 0.53 a 1.2 1.2 0 0 1 -1 -0.21 l -3.2 -2.27 a 1.45 1.45 0 0 1 -0.58 -0.92 a 1.16 1.16 0 0 1 0.25 -1 a 9 9 0 0 1 2.75 -2.39 a 12.32 12.32 0 0 1 3.06 -1.18 a 18.7 18.7 0 0 1 3.12 -0.48 c 1 -0.06 2 -0.14 2.92 -0.23 a 11 11 0 0 0 2.43 -0.49 a 3.23 3.23 0 0 0 1.7 -1.23 a 3.87 3.87 0 0 0 0.52 -3.58 a 7 7 0 0 0 -2.84 -3.57 q -3.57 -2.55 -7.8 -0.17 a 2.8 2.8 0 0 1 -0.93 0.38 a 1.3 1.3 0 0 1 -0.95 -0.32 l -3.4 -2.42 a 1.15 1.15 0 0 1 -0.48 -0.72 a 1.06 1.06 0 0 1 0.21 -0.86 a 7.93 7.93 0 0 1 3 -2.37 a 12.69 12.69 0 0 1 4.29 -1.13 a 15.31 15.31 0 0 1 4.85 0.38 A 13.32 13.32 0 0 1 470 125.45 Z" stroke-linecap="round"/>
</g>
<g transform="matrix(1.8182 0 0 1.8182 287.373 665.0633)" id="freepik--character--inject-45">
<path style="stroke: none; stroke-width: 1; stroke-dasharray: none; stroke-linecap: butt; stroke-dashoffset: 0; stroke-linejoin: miter; stroke-miterlimit: 4; is-custom-font: none; font-file-url: none; fill: rgb(255,168,167); fill-rule: nonzero; opacity: 1;" transform=" translate(-133.055, -340.7846)" d="M 132.48 348.52 c -0.1 -3 2.06 -32.32 2.06 -32.32 l -14.28 10.36 c 2.93 17.48 3.56 21.61 3.61 24.47 h 0 a 2.65 2.65 0 0 0 -0.08 0.73 c 0 3.4 3.85 5.23 6.84 7.5 a 56.63 56.63 0 0 0 8.09 5.28 c 2.17 1.09 6.59 1.19 7.13 -0.21 c -3.64 -2.78 -8.93 -6.94 -11.83 -10.11 C 132.64 352.7 132.59 351.5 132.48 348.52 Z" stroke-linecap="round"/>
</g>
<g transform="matrix(1.8182 0 0 1.8182 294.758 712.1199)" id="freepik--character--inject-45">
<path style="stroke: none; stroke-width: 1; stroke-dasharray: none; stroke-linecap: butt; stroke-dashoffset: 0; stroke-linejoin: miter; stroke-miterlimit: 4; is-custom-font: none; font-file-url: none; fill: rgb(38,50,56); fill-rule: nonzero; opacity: 1;" transform=" translate(-137.1167, -366.6659)" d="M 152.06 368 a 2.66 2.66 0 0 1 -0.61 2.73 a 12.24 12.24 0 0 1 -9.08 2.16 c -4.54 -0.59 -7 -1.88 -8.81 -3.4 s -4.36 -3.66 -6.42 -4.11 a 12.38 12.38 0 0 1 -4.58 -1.88 c -0.61 -0.59 -0.53 -3.21 -0.53 -3.21 Z" stroke-linecap="round"/>
</g>
<g transform="matrix(1.8182 0 0 1.8182 294.8141 701.8184)" id="freepik--character--inject-45">
<path style="stroke: none; stroke-width: 1; stroke-dasharray: none; stroke-linecap: butt; stroke-dashoffset: 0; stroke-linejoin: miter; stroke-miterlimit: 4; is-custom-font: none; font-file-url: none; fill: rgb(69,90,100); fill-rule: nonzero; opacity: 1;" transform=" translate(-137.1476, -361)" d="M 123.84 350.2 a 0.72 0.72 0 0 0 -0.69 0.61 c -0.14 0.72 -0.29 2.82 -0.59 4 a 21.35 21.35 0 0 0 -0.44 6.36 c 0.25 1.35 3.35 2.28 5.34 3 a 25.15 25.15 0 0 1 6.44 4.06 a 18.16 18.16 0 0 0 9.57 3.57 c 3.5 0 7.44 -1.16 8.35 -2.78 c 1.11 -2 0.24 -3.17 -4.95 -5.58 c -1 -0.45 -4.43 -2.5 -5.61 -3.24 c -3.18 -2 -6.33 -4.79 -7.8 -8.33 a 2 2 0 0 0 -0.74 -1.08 a 1.66 1.66 0 0 0 -1 -0.1 a 8.72 8.72 0 0 0 -2.5 0.76 c -0.69 0.33 -1.68 0.72 -1.67 1.61 a 3.09 3.09 0 0 0 0.2 0.9 c 0.06 0.19 0.11 0.43 0 0.54 s -0.35 0 -0.49 -0.14 a 13.19 13.19 0 0 1 -1.39 -1.68 a 5.43 5.43 0 0 0 -0.83 -0.83 a 7.88 7.88 0 0 1 -0.88 -0.58 C 123.78 351 123.86 350.62 123.84 350.2 Z" stroke-linecap="round"/>
</g>
<g transform="matrix(1.8182 0 0 1.8182 302.9955 713.5286)" id="freepik--character--inject-45">
<path style="stroke: none; stroke-width: 1; stroke-dasharray: none; stroke-linecap: butt; stroke-dashoffset: 0; stroke-linejoin: miter; stroke-miterlimit: 4; is-custom-font: none; font-file-url: none; fill: rgb(55,71,79); fill-rule: nonzero; opacity: 1;" transform=" translate(-141.6474, -367.4407)" d="M 133.9 368.28 c -0.91 -0.74 -1.87 -1.47 -2.83 -2.11 h 0 s 6.1 3.71 8.56 2 a 2.2 2.2 0 0 0 0.8 -2.82 c 0 -0.42 3.88 -2.23 5.42 -2.41 h 0 c 0.43 0.24 0.79 0.43 1 0.53 c 5.19 2.41 6.06 3.57 4.95 5.58 c -0.91 1.62 -3.76 2.89 -8.28 2.89 C 140.58 372 136 370 133.9 368.28 Z" stroke-linecap="round"/>
</g>
<g transform="matrix(1.8182 0 0 1.8182 286.3255 696.6573)" id="freepik--character--inject-45">
<path style="stroke: none; stroke-width: 1; stroke-dasharray: none; stroke-linecap: butt; stroke-dashoffset: 0; stroke-linejoin: miter; stroke-miterlimit: 4; is-custom-font: none; font-file-url: none; fill: rgb(38,50,56); fill-rule: nonzero; opacity: 1;" transform=" translate(-132.4789, -358.1614)" d="M 140 364.14 c 3.23 1.29 1.85 1.89 0.95 2 s -6.33 -3 -9.65 -5.66 s -5.63 -5.73 -6.91 -6.73 c -0.48 -0.37 -1 -0.83 -1.46 -1.26 c 0.09 -0.71 0.16 -1.36 0.22 -1.7 a 0.72 0.72 0 0 1 0.69 -0.61 c 0 0.42 -0.06 0.81 0.26 1.12 a 7.88 7.88 0 0 0 0.88 0.58 a 5.43 5.43 0 0 1 0.83 0.83 a 13.19 13.19 0 0 0 1.39 1.68 A 42 42 0 0 0 140 364.14 Z" stroke-linecap="round"/>
</g>
<g transform="matrix(1.8182 0 0 1.8182 306.4293 707.7366)" id="freepik--character--inject-45">
<path style="stroke: none; stroke-width: 1; stroke-dasharray: none; stroke-linecap: butt; stroke-dashoffset: 0; stroke-linejoin: miter; stroke-miterlimit: 4; is-custom-font: none; font-file-url: none; fill: rgb(245,245,245); fill-rule: nonzero; opacity: 1;" transform=" translate(-143.5361, -364.2552)" d="M 140.72 365.69 a 0.32 0.32 0 0 1 -0.2 -0.08 a 0.31 0.31 0 0 1 -0.05 -0.44 a 7.67 7.67 0 0 1 5.91 -2.34 a 0.33 0.33 0 0 1 0.29 0.36 a 0.32 0.32 0 0 1 -0.35 0.28 a 7.12 7.12 0 0 0 -5.35 2.1 A 0.33 0.33 0 0 1 140.72 365.69 Z" stroke-linecap="round"/>
</g>
<g transform="matrix(1.8182 0 0 1.8182 301.3713 704.6749)" id="freepik--character--inject-45">
<path style="stroke: none; stroke-width: 1; stroke-dasharray: none; stroke-linecap: butt; stroke-dashoffset: 0; stroke-linejoin: miter; stroke-miterlimit: 4; is-custom-font: none; font-file-url: none; fill: rgb(245,245,245); fill-rule: nonzero; opacity: 1;" transform=" translate(-140.7542, -362.5712)" d="M 137.91 364 a 0.31 0.31 0 0 1 -0.21 -0.07 a 0.33 0.33 0 0 1 0 -0.45 a 7.69 7.69 0 0 1 5.91 -2.33 a 0.32 0.32 0 0 1 -0.07 0.64 a 7.08 7.08 0 0 0 -5.35 2.1 A 0.32 0.32 0 0 1 137.91 364 Z" stroke-linecap="round"/>
</g>
<g transform="matrix(1.8182 0 0 1.8182 296.2629 701.6034)" id="freepik--character--inject-45">
<path style="stroke: none; stroke-width: 1; stroke-dasharray: none; stroke-linecap: butt; stroke-dashoffset: 0; stroke-linejoin: miter; stroke-miterlimit: 4; is-custom-font: none; font-file-url: none; fill: rgb(245,245,245); fill-rule: nonzero; opacity: 1;" transform=" translate(-137.9445, -360.8819)" d="M 135.09 362.31 a 0.31 0.31 0 0 1 -0.2 -0.07 a 0.32 0.32 0 0 1 0 -0.45 a 7.7 7.7 0 0 1 5.91 -2.33 a 0.32 0.32 0 0 1 0.29 0.35 a 0.32 0.32 0 0 1 -0.35 0.29 a 7.08 7.08 0 0 0 -5.35 2.1 A 0.34 0.34 0 0 1 135.09 362.31 Z" stroke-linecap="round"/>
</g>
<g transform="matrix(1.8182 0 0 1.8182 291.5045 698.202)" id="freepik--character--inject-45">
<path style="stroke: none; stroke-width: 1; stroke-dasharray: none; stroke-linecap: butt; stroke-dashoffset: 0; stroke-linejoin: miter; stroke-miterlimit: 4; is-custom-font: none; font-file-url: none; fill: rgb(245,245,245); fill-rule: nonzero; opacity: 1;" transform=" translate(-135.3275, -359.0111)" d="M 132.48 360.44 a 0.31 0.31 0 0 1 -0.2 -0.07 a 0.31 0.31 0 0 1 0 -0.45 a 7.67 7.67 0 0 1 5.91 -2.33 a 0.32 0.32 0 0 1 0.28 0.35 a 0.32 0.32 0 0 1 -0.35 0.28 a 7.15 7.15 0 0 0 -5.35 2.1 A 0.32 0.32 0 0 1 132.48 360.44 Z" stroke-linecap="round"/>
</g>
<g transform="matrix(1.8182 0 0 1.8182 287.3654 694.7448)" id="freepik--character--inject-45">
<path style="stroke: none; stroke-width: 1; stroke-dasharray: none; stroke-linecap: butt; stroke-dashoffset: 0; stroke-linejoin: miter; stroke-miterlimit: 4; is-custom-font: none; font-file-url: none; fill: rgb(245,245,245); fill-rule: nonzero; opacity: 1;" transform=" translate(-133.0509, -357.1096)" d="M 129.93 358.57 a 0.37 0.37 0 0 1 -0.2 -0.07 a 0.32 0.32 0 0 1 0 -0.45 a 7.82 7.82 0 0 1 6.45 -2.36 a 0.3 0.3 0 0 1 0.28 0.35 a 0.32 0.32 0 0 1 -0.35 0.28 a 7.27 7.27 0 0 0 -5.88 2.12 A 0.34 0.34 0 0 1 129.93 358.57 Z" stroke-linecap="round"/>
</g>
<g transform="matrix(1.8182 0 0 1.8182 224.3183 689.4928)" id="freepik--character--inject-45">
<path style="stroke: none; stroke-width: 1; stroke-dasharray: none; stroke-linecap: butt; stroke-dashoffset: 0; stroke-linejoin: miter; stroke-miterlimit: 4; is-custom-font: none; font-file-url: none; fill: rgb(255,168,167); fill-rule: nonzero; opacity: 1;" transform=" translate(-98.375, -354.2208)" d="M 105.58 329.55 l -14.41 -0.26 c 0.21 9.62 1.74 20.29 2 29.31 c 0 1.7 0 13.2 0.6 16.7 c 1 5.25 7.2 4.54 7.53 1.4 s -0.4 -16.57 -0.38 -18 c -0.06 -5.78 2.65 -15.55 4.08 -25.94 C 105.06 332.29 105.51 330.05 105.58 329.55 Z" stroke-linecap="round"/>
</g>
<g transform="matrix(1.8182 0 0 1.8182 222.3952 741.2943)" id="freepik--character--inject-45">
<path style="stroke: none; stroke-width: 1; stroke-dasharray: none; stroke-linecap: butt; stroke-dashoffset: 0; stroke-linejoin: miter; stroke-miterlimit: 4; is-custom-font: none; font-file-url: none; fill: rgb(38,50,56); fill-rule: nonzero; opacity: 1;" transform=" translate(-97.3173, -382.7118)" d="M 103.64 378.88 a 14.39 14.39 0 0 1 -1 7.08 a 4.54 4.54 0 0 1 -5 2.36 c -2.13 -0.31 -4.94 -1.45 -5.8 -4 A 16.92 16.92 0 0 1 91 377 Z" stroke-linecap="round"/>
</g>
<g transform="matrix(1.8182 0 0 1.8182 222.4265 722.3673)" id="freepik--character--inject-45">
<path style="stroke: none; stroke-width: 1; stroke-dasharray: none; stroke-linecap: butt; stroke-dashoffset: 0; stroke-linejoin: miter; stroke-miterlimit: 4; is-custom-font: none; font-file-url: none; fill: rgb(69,90,100); fill-rule: nonzero; opacity: 1;" transform=" translate(-97.3345, -372.3019)" d="M 93.13 357.5 c -0.85 0.15 -0.69 4.3 -0.77 8.47 c -0.09 4.48 -1.22 6.44 -1.33 10.11 c -0.13 4.2 0.28 6 2 8.38 s 7.09 4.3 9.26 0.46 c 1.77 -3.13 1.53 -6.38 0.92 -10.5 s -1.09 -7.24 -1.25 -10.5 s -0.23 -6.15 -1 -6.42 c 0 0.46 0 1.05 0 1.5 s 0.07 2 -0.41 2.1 a 7.48 7.48 0 0 1 -0.13 -1.17 a 1.42 1.42 0 0 0 -0.33 -1 a 1.64 1.64 0 0 0 -1 -0.32 a 22.3 22.3 0 0 0 -2.58 -0.14 c -0.43 0 -0.87 0 -1.29 0.07 a 3.24 3.24 0 0 0 -1.07 0.27 a 0.78 0.78 0 0 0 -0.43 0.46 a 1.29 1.29 0 0 0 0 0.48 a 3.53 3.53 0 0 1 0 0.86 c 0 0.13 -0.09 0.29 -0.22 0.27 s -0.15 -0.14 -0.16 -0.24 c -0.06 -0.5 0 -0.87 -0.06 -1.45 c 0 -0.27 0 -0.64 0 -0.91 S 93.14 357.77 93.13 357.5 Z" stroke-linecap="round"/>
</g>
<g transform="matrix(1.8182 0 0 1.8182 222.3107 738.0708)" id="freepik--character--inject-45">
<path style="stroke: none; stroke-width: 1; stroke-dasharray: none; stroke-linecap: butt; stroke-dashoffset: 0; stroke-linejoin: miter; stroke-miterlimit: 4; is-custom-font: none; font-file-url: none; fill: rgb(55,71,79); fill-rule: nonzero; opacity: 1;" transform=" translate(-97.2709, -380.9389)" d="M 91.1 374.88 c 0 0.61 -0.13 4.62 1 5.22 s 1.57 -2.52 1.57 -2.52 s 2.65 -1.11 6.81 0.23 c -0.14 0.66 0.68 2.72 1.73 2.16 s 1 -5.13 1 -5.19 c 0.57 4 0.75 7.1 -1 10.14 c -2.17 3.84 -7.56 1.9 -9.26 -0.46 s -2.11 -4.18 -2 -8.38 C 91 375.66 91.07 375.27 91.1 374.88 Z" stroke-linecap="round"/>
</g>
<g transform="matrix(1.8182 0 0 1.8182 214.7877 714.7143)" id="freepik--character--inject-45">
<path style="stroke: none; stroke-width: 1; stroke-dasharray: none; stroke-linecap: butt; stroke-dashoffset: 0; stroke-linejoin: miter; stroke-miterlimit: 4; is-custom-font: none; font-file-url: none; fill: rgb(38,50,56); fill-rule: nonzero; opacity: 1;" transform=" translate(-93.1332, -368.0928)" d="M 94 377.81 c 0.13 1.5 -1.39 1.15 -1.67 -1 s 0.38 -7.24 0 -10.88 c 0.08 -4.17 -0.08 -8.32 0.77 -8.47 a 0.76 0.76 0 0 0 0 0.15 l 0.1 2.11 a 6.85 6.85 0 0 0 0 0.9 c 0.28 3.06 0.45 9 0.46 11.82 A 50.39 50.39 0 0 0 94 377.81 Z" stroke-linecap="round"/>
</g>
<g transform="matrix(1.8182 0 0 1.8182 228.8683 714.7633)" id="freepik--character--inject-45">
<path style="stroke: none; stroke-width: 1; stroke-dasharray: none; stroke-linecap: butt; stroke-dashoffset: 0; stroke-linejoin: miter; stroke-miterlimit: 4; is-custom-font: none; font-file-url: none; fill: rgb(38,50,56); fill-rule: nonzero; opacity: 1;" transform=" translate(-100.8776, -368.1197)" d="M 100 377.81 a 47.78 47.78 0 0 0 0.29 -5.33 c 0 -2.8 0.18 -8.67 0.46 -11.75 a 7.7 7.7 0 0 0 0.13 -1.73 c 0 -0.42 0 -1 0 -1.4 c 0 0 0 -0.06 0 -0.1 c 0.56 0.21 0.76 1.86 0.88 3.94 c 0 1.21 0 2.71 -0.11 4.53 c -0.38 3.64 0.28 8.8 0 10.91 S 99.9 379.31 100 377.81 Z" stroke-linecap="round"/>
</g>
<g transform="matrix(1.8182 0 0 1.8182 222.0795 731.4944)" id="freepik--character--inject-45">
<path style="stroke: none; stroke-width: 1; stroke-dasharray: none; stroke-linecap: butt; stroke-dashoffset: 0; stroke-linejoin: miter; stroke-miterlimit: 4; is-custom-font: none; font-file-url: none; fill: rgb(245,245,245); fill-rule: nonzero; opacity: 1;" transform=" translate(-97.1436, -377.3219)" d="M 100.59 377.92 l -0.11 0 a 10.22 10.22 0 0 0 -6.67 0 a 0.32 0.32 0 1 1 -0.23 -0.6 a 10.6 10.6 0 0 1 7.13 0 a 0.31 0.31 0 0 1 0.18 0.41 A 0.31 0.31 0 0 1 100.59 377.92 Z" stroke-linecap="round"/>
</g>
<g transform="matrix(1.8182 0 0 1.8182 222.1099 725.4609)" id="freepik--character--inject-45">
<path style="stroke: none; stroke-width: 1; stroke-dasharray: none; stroke-linecap: butt; stroke-dashoffset: 0; stroke-linejoin: miter; stroke-miterlimit: 4; is-custom-font: none; font-file-url: none; fill: rgb(245,245,245); fill-rule: nonzero; opacity: 1;" transform=" translate(-97.1604, -374.0035)" d="M 101 374.6 a 0.23 0.23 0 0 1 -0.11 0 a 12.58 12.58 0 0 0 -7.46 0 a 0.32 0.32 0 0 1 -0.41 -0.2 a 0.31 0.31 0 0 1 0.2 -0.4 a 13 13 0 0 1 7.89 0 a 0.32 0.32 0 0 1 -0.11 0.62 Z" stroke-linecap="round"/>
</g>
<g transform="matrix(1.8182 0 0 1.8182 222.0241 719.5926)" id="freepik--character--inject-45">
<path style="stroke: none; stroke-width: 1; stroke-dasharray: none; stroke-linecap: butt; stroke-dashoffset: 0; stroke-linejoin: miter; stroke-miterlimit: 4; is-custom-font: none; font-file-url: none; fill: rgb(245,245,245); fill-rule: nonzero; opacity: 1;" transform=" translate(-97.1132, -370.7759)" d="M 93.3 371.46 a 0.33 0.33 0 0 1 -0.29 -0.19 a 0.32 0.32 0 0 1 0.16 -0.42 a 10.93 10.93 0 0 1 7.87 -0.05 a 0.31 0.31 0 0 1 0.18 0.41 a 0.32 0.32 0 0 1 -0.41 0.18 s -3.92 -1.54 -7.37 0 A 0.35 0.35 0 0 1 93.3 371.46 Z" stroke-linecap="round"/>
</g>
<g transform="matrix(1.8182 0 0 1.8182 221.9849 714.1358)" id="freepik--character--inject-45">
<path style="stroke: none; stroke-width: 1; stroke-dasharray: none; stroke-linecap: butt; stroke-dashoffset: 0; stroke-linejoin: miter; stroke-miterlimit: 4; is-custom-font: none; font-file-url: none; fill: rgb(245,245,245); fill-rule: nonzero; opacity: 1;" transform=" translate(-97.0916, -367.7747)" d="M 93.23 368.52 a 0.32 0.32 0 0 1 -0.29 -0.18 a 0.32 0.32 0 0 1 0.15 -0.42 a 9.89 9.89 0 0 1 8 -0.09 a 0.31 0.31 0 0 1 0.15 0.42 a 0.31 0.31 0 0 1 -0.42 0.15 a 9.5 9.5 0 0 0 -7.48 0.09 A 0.35 0.35 0 0 1 93.23 368.52 Z" stroke-linecap="round"/>
</g>
<g transform="matrix(1.8182 0 0 1.8182 221.9451 708.1794)" id="freepik--character--inject-45">
<path style="stroke: none; stroke-width: 1; stroke-dasharray: none; stroke-linecap: butt; stroke-dashoffset: 0; stroke-linejoin: miter; stroke-miterlimit: 4; is-custom-font: none; font-file-url: none; fill: rgb(245,245,245); fill-rule: nonzero; opacity: 1;" transform=" translate(-97.0697, -364.4986)" d="M 93.16 365.23 a 0.32 0.32 0 0 1 -0.14 -0.61 c 3.81 -1.88 7.92 -0.08 8.09 0 a 0.3 0.3 0 0 1 0.16 0.42 a 0.32 0.32 0 0 1 -0.42 0.16 s -4 -1.75 -7.54 0 A 0.28 0.28 0 0 1 93.16 365.23 Z" stroke-linecap="round"/>
</g>
<g transform="matrix(1.8182 0 0 1.8182 251.628 569.2646)" id="freepik--character--inject-45">
<path style="stroke: none; stroke-width: 1; stroke-dasharray: none; stroke-linecap: butt; stroke-dashoffset: 0; stroke-linejoin: miter; stroke-miterlimit: 4; is-custom-font: none; font-file-url: none; fill: rgb(241,80,51); fill-rule: nonzero; opacity: 1;" transform=" translate(-113.3952, -288.095)" d="M 95.91 236 c -5.08 14.07 -4.19 22.9 -3.32 37.65 c 0.8 13.52 2.07 25.43 2.07 25.43 c -0.2 2.4 -3.54 7.08 -4 17.68 a 173.65 173.65 0 0 0 1 22.35 s 6.65 2.43 12.27 0 c 0 0 5.75 -25.39 7.32 -37.8 c 1.36 -10.83 3.74 -24.67 3.74 -24.67 l 5 24.62 a 36.38 36.38 0 0 0 -1.49 10.19 c 0 5.79 2.69 21.89 2.69 21.89 s 7.45 2.41 12.17 -1.78 c 0 0 1.87 -23.17 2.53 -32 c 0.88 -11.78 -0.4 -44.07 -3.23 -60.6 Z" stroke-linecap="round"/>
</g>
<g transform="matrix(1.8182 0 0 1.8182 268.8275 549.1732)" id="freepik--character--inject-45">
<path style="stroke: none; stroke-width: 1; stroke-dasharray: none; stroke-linecap: butt; stroke-dashoffset: 0; stroke-linejoin: miter; stroke-miterlimit: 4; is-custom-font: none; font-file-url: none; fill: rgb(55,71,79); fill-rule: nonzero; opacity: 1;" transform=" translate(-122.855, -277.045)" d="M 115.05 276.6 l 2.08 -18.52 s 9.31 -1.24 13.53 -5.21 a 15.27 15.27 0 0 1 -11 6.93 l -3 17.24 l 3.4 24.18 Z" stroke-linecap="round"/>
</g>
<g transform="matrix(1.8182 0 0 1.8182 317.6114 424.064)" id="freepik--character--inject-45">
<path style="stroke: none; stroke-width: 1; stroke-dasharray: none; stroke-linecap: butt; stroke-dashoffset: 0; stroke-linejoin: miter; stroke-miterlimit: 4; is-custom-font: none; font-file-url: none; fill: rgb(255,168,167); fill-rule: nonzero; opacity: 1;" transform=" translate(-149.686, -208.235)" d="M 138.07 222.27 c -4.53 -4.66 -12.71 -15.2 -12.71 -15.2 l -4.62 -16 a 29.88 29.88 0 0 0 3.1 0 c 5 0.33 6.47 0.76 9.58 4.16 c 2.47 2.71 11.89 15.57 15.16 19.9 l 8.69 -11.07 c 2.09 -3.15 1.75 -6.68 2.83 -9.25 s 2.83 -3.7 4.23 -6 s 1.73 -3.84 2.88 -2.65 s -0.18 4.39 -0.35 5.12 s -1.93 2.9 1 1.77 s 7.45 -6.48 8.61 -7.57 s 1.78 0.6 1.52 1.94 s 1 4.36 0.54 6.57 a 9 9 0 0 1 -3.1 5.71 c -2.11 2.12 -7.27 4.73 -9.29 7.52 s -6.33 11.46 -9 16.68 c -3.35 6.64 -6.2 8.83 -10 6.59 S 139.74 224 138.07 222.27 Z" stroke-linecap="round"/>
</g>
<g transform="matrix(1.8182 0 0 1.8182 286.5093 418.271)" id="freepik--character--inject-45">
<path style="stroke: none; stroke-width: 1; stroke-dasharray: none; stroke-linecap: butt; stroke-dashoffset: 0; stroke-linejoin: miter; stroke-miterlimit: 4; is-custom-font: none; font-file-url: none; fill: rgb(204,233,255); fill-rule: nonzero; opacity: 1;" transform=" translate(-132.58, -205.0489)" d="M 122.21 190.9 a 16.58 16.58 0 0 1 7.54 1 c 2.71 1.22 4.55 3.84 7.2 7.39 s 7.38 9.76 7.38 9.76 s -1.28 5.39 -9.72 10.23 l -13.78 -14.19 Z" stroke-linecap="round"/>
</g>
<g transform="matrix(1.8182 0 0 1.8182 312.6121 440.9819)" id="freepik--character--inject-45">
<path style="stroke: none; stroke-width: 1; stroke-dasharray: none; stroke-linecap: butt; stroke-dashoffset: 0; stroke-linejoin: miter; stroke-miterlimit: 4; is-custom-font: none; font-file-url: none; fill: rgb(242,143,143); fill-rule: nonzero; opacity: 1;" transform=" translate(-146.9367, -217.54)" d="M 148.58 215.12 a 10.56 10.56 0 0 0 -3.15 5.83 s -1 -3.21 2.41 -6.82 Z" stroke-linecap="round"/>
</g>
<g transform="matrix(1.8182 0 0 1.8182 253.0336 447.0032)" id="freepik--character--inject-45">
<path style="stroke: none; stroke-width: 1; stroke-dasharray: none; stroke-linecap: butt; stroke-dashoffset: 0; stroke-linejoin: miter; stroke-miterlimit: 4; is-custom-font: none; font-file-url: none; fill: rgb(14,83,140); fill-rule: nonzero; opacity: 1;" transform=" translate(-114.1683, -220.8515)" d="M 132.19 219.31 c 6.15 -5.06 4.12 -11.65 1.88 -16.09 c -4.49 -8.87 -9.16 -12.36 -11.11 -12.33 l -12.23 0.12 c -5.84 0.8 -10.36 0.4 -11.77 0.73 c -3.6 0.85 -3.68 3.81 -3.82 7.64 c -0.15 4.2 -2.3 3.49 -1.21 10.43 a 71.63 71.63 0 0 1 3.38 7.95 c 0.66 2.4 2.52 6.22 1.53 10.1 c -0.38 1.5 -1.4 3 -2.93 7.11 a 77.43 77.43 0 0 0 -3.85 14.26 s 3.57 -0.83 7.63 -5.15 c 0 0 5.55 7.43 18.9 6.68 c 13.85 -0.78 15.07 -8 15.07 -8 l -2.12 -13 C 131.86 224.51 132 222.61 132.19 219.31 Z" stroke-linecap="round"/>
</g>
<g transform="matrix(1.8182 0 0 1.8182 255.2119 441.2402)" id="freepik--character--inject-45">
<path style="stroke: none; stroke-width: 1; stroke-dasharray: none; stroke-linecap: butt; stroke-dashoffset: 0; stroke-linejoin: miter; stroke-miterlimit: 4; is-custom-font: none; font-file-url: none; fill: rgb(0,0,0); fill-rule: nonzero; opacity: 0.1;" transform=" translate(-115.3664, -217.6821)" d="M 124.2 218 s -5 4 -10.87 2.08 a 10 10 0 0 1 -6.79 -7 s -0.5 6.65 6.88 8.79 A 9.6 9.6 0 0 0 124.2 218 Z" stroke-linecap="round"/>
</g>
<g transform="matrix(1.8182 0 0 1.8182 201.5862 396.3194)" id="freepik--character--inject-45">
<path style="stroke: none; stroke-width: 1; stroke-dasharray: none; stroke-linecap: butt; stroke-dashoffset: 0; stroke-linejoin: miter; stroke-miterlimit: 4; is-custom-font: none; font-file-url: none; fill: rgb(55,71,79); fill-rule: nonzero; opacity: 1;" transform=" translate(-85.8724, -192.9756)" d="M 89.19 185.18 c -1.81 -1.32 -11.56 11.73 -7 15 s 9.42 -6 8.44 -10.38 S 89.19 185.18 89.19 185.18 Z" stroke-linecap="round"/>
</g>
<g transform="matrix(1.8182 0 0 1.8182 202.3197 369.2846)" id="freepik--character--inject-45">
<path style="stroke: none; stroke-width: 1; stroke-dasharray: none; stroke-linecap: butt; stroke-dashoffset: 0; stroke-linejoin: miter; stroke-miterlimit: 4; is-custom-font: none; font-file-url: none; fill: rgb(255,168,167); fill-rule: nonzero; opacity: 1;" transform=" translate(-86.2756, -178.1062)" d="M 80.34 178.7 c 2.44 -3.38 4.1 -5.93 6.33 -8.83 c 1.26 -1.65 2.07 -2.82 3.28 -4.51 c 0.84 -1.16 1.33 -2.14 2.27 -2.51 a 8 8 0 0 0 2.75 -2 a 16.29 16.29 0 0 0 1.29 -1.71 a 25 25 0 0 1 5 -5.16 c 2 -1.55 4.19 -2.75 6.23 -4.23 c 1.21 -0.88 2.51 -2.33 1 -3.64 a 3.59 3.59 0 0 0 -1.62 -0.74 c -3.64 -0.73 -6.79 0.58 -10.33 1.55 a 30.89 30.89 0 0 0 -4.5 1.61 a 7.73 7.73 0 0 0 -2 1.19 a 10.33 10.33 0 0 0 -2 3 c -1.55 2.85 -4.82 5.39 -7.11 7.62 c -2.69 2.62 -5.09 5 -8.16 7.91 c -2.76 2.6 -5.47 5 -8 7.84 c -2.09 2.34 -1.28 4.14 -1 4.75 c 1.8 3.54 3.76 4.79 6.12 7 c 0.78 0.72 1.57 1.43 2.36 2.14 c 3.06 2.76 6.12 5.34 9.3 8 c 3.4 2.8 4.8 4.16 7.83 6.88 a 22.49 22.49 0 0 1 4.71 6.13 c 5.25 0.87 10.41 -7.16 5.91 -16.55 a 9.82 9.82 0 0 0 -3.25 -3.78 C 91.21 186.71 80.34 178.7 80.34 178.7 Z" stroke-linecap="round"/>
</g>
<g transform="matrix(1.8182 0 0 1.8182 187.1364 374.5192)" id="freepik--character--inject-45">
<path style="stroke: none; stroke-width: 1; stroke-dasharray: none; stroke-linecap: butt; stroke-dashoffset: 0; stroke-linejoin: miter; stroke-miterlimit: 4; is-custom-font: none; font-file-url: none; fill: rgb(242,143,143); fill-rule: nonzero; opacity: 1;" transform=" translate(-77.925, -180.9855)" d="M 80.34 178.7 A 13.82 13.82 0 0 1 74 183.21 s 3.35 0.8 7.85 -3.39 Z" stroke-linecap="round"/>
</g>
<g transform="matrix(1.8182 0 0 1.8182 212.7066 408.7094)" id="freepik--character--inject-45">
<path style="stroke: none; stroke-width: 1; stroke-dasharray: none; stroke-linecap: butt; stroke-dashoffset: 0; stroke-linejoin: miter; stroke-miterlimit: 4; is-custom-font: none; font-file-url: none; fill: rgb(204,233,255); fill-rule: nonzero; opacity: 1;" transform=" translate(-91.9885, -199.79)" d="M 99.38 191.66 c -1.23 -0.85 -4.22 -2.66 -10.19 -6.48 c 0 0 0.92 1.93 -0.53 6.78 s -4.51 7.92 -6.43 8.27 c 0 0 3.34 2.64 6.42 5.62 s 5.61 5.09 7.39 8.55 c 0 0 4.4 -1.13 5.4 -8.59 C 102.14 200.58 101.72 194.44 99.38 191.66 Z" stroke-linecap="round"/>
</g>
<g transform="matrix(1.8182 0 0 1.8182 252.8305 351.8809)" id="freepik--character--inject-45">
<path style="stroke: none; stroke-width: 1; stroke-dasharray: none; stroke-linecap: butt; stroke-dashoffset: 0; stroke-linejoin: miter; stroke-miterlimit: 4; is-custom-font: none; font-file-url: none; fill: rgb(38,50,56); fill-rule: nonzero; opacity: 1;" transform=" translate(-114.0566, -168.5343)" d="M 132.78 167.64 a 12 12 0 0 0 -0.81 -11.71 c -3.79 -5.39 -10.18 -8 -17.24 -7.92 l -2.19 0 c -9.53 0.16 -18.19 8.34 -18.36 17.55 h 0 c 0 6.48 0 12.47 3.57 16.89 c 3.29 4.11 8.42 5.46 12.75 6.12 c 8.28 1.26 17.58 0.3 21.34 -5.34 c 0 0 -5 1 -4.37 -4.18 c 0.09 -0.82 -0.69 -1.72 -2.06 -2.65 a 27.77 27.77 0 0 1 3.37 -4.65 C 130.19 170.34 131.82 169.55 132.78 167.64 Z" stroke-linecap="round"/>
</g>
<g transform="matrix(1.8182 0 0 1.8182 253.8035 371.0362)" id="freepik--character--inject-45">
<path style="stroke: none; stroke-width: 1; stroke-dasharray: none; stroke-linecap: butt; stroke-dashoffset: 0; stroke-linejoin: miter; stroke-miterlimit: 4; is-custom-font: none; font-file-url: none; fill: rgb(255,168,167); fill-rule: nonzero; opacity: 1;" transform=" translate(-114.5918, -179.0697)" d="M 130.31 172.37 c -0.05 9.65 -3.14 12.08 -4.69 12.8 s -4.59 0.34 -7.54 -0.09 l 0.1 5.79 s 3.45 3.49 3.25 6.15 s -5.28 3 -9.13 0.51 a 28.56 28.56 0 0 1 -5.72 -5 a 2.1 2.1 0 0 1 -0.51 -1.33 l -0.24 -13.61 s -1.58 1.73 -4.46 -0.17 a 5.26 5.26 0 0 1 -1.49 -7.61 a 3.88 3.88 0 0 1 5.92 0.61 c 0.88 1.64 0.8 2.8 2 2.61 s 1.25 -1.49 1.33 -2.42 s 0 -1.23 0.12 -2.45 c 2.85 -0.61 5.8 -4.58 6.13 -7.48 a 13.65 13.65 0 0 0 6.21 1.4 c 3.19 -0.22 4.84 -0.86 6.41 -3.16 a 7 7 0 0 1 0.89 1.71 a 22.24 22.24 0 0 1 1 3.79 A 48.82 48.82 0 0 1 130.31 172.37 Z" stroke-linecap="round"/>
</g>
<g transform="matrix(1.8182 0 0 1.8182 250.5729 379.5546)" id="freepik--character--inject-45">
<path style="stroke: none; stroke-width: 1; stroke-dasharray: none; stroke-linecap: butt; stroke-dashoffset: 0; stroke-linejoin: miter; stroke-miterlimit: 4; is-custom-font: none; font-file-url: none; fill: rgb(242,143,143); fill-rule: nonzero; opacity: 1;" transform=" translate(-112.815, -183.755)" d="M 118.08 185.08 c -3.11 -0.36 -9.52 -2.08 -10.56 -4.58 a 6.54 6.54 0 0 0 2.29 3.18 c 1.94 1.6 8.3 3.33 8.3 3.33 Z" stroke-linecap="round"/>
</g>
<g transform="matrix(1.8182 0 0 1.8182 263.528 372.5634)" id="freepik--character--inject-45">
<path style="stroke: none; stroke-width: 1; stroke-dasharray: none; stroke-linecap: butt; stroke-dashoffset: 0; stroke-linejoin: miter; stroke-miterlimit: 4; is-custom-font: none; font-file-url: none; fill: rgb(177,102,104); fill-rule: nonzero; opacity: 1;" transform=" translate(-119.9403, -179.9099)" d="M 121.21 179.88 a 1.27 1.27 0 1 1 -1.29 -1.24 A 1.27 1.27 0 0 1 121.21 179.88 Z" stroke-linecap="round"/>
</g>
<g transform="matrix(1.8182 0 0 1.8182 260.372 355.4142)" id="freepik--character--inject-45">
<path style="stroke: none; stroke-width: 1; stroke-dasharray: none; stroke-linecap: butt; stroke-dashoffset: 0; stroke-linejoin: miter; stroke-miterlimit: 4; is-custom-font: none; font-file-url: none; fill: rgb(38,50,56); fill-rule: nonzero; opacity: 1;" transform=" translate(-118.2046, -170.4778)" d="M 119.58 170.38 a 1.35 1.35 0 0 1 -1.23 1.47 a 1.38 1.38 0 1 1 1.23 -1.47 Z" stroke-linecap="round"/>
</g>
<g transform="matrix(1.8182 0 0 1.8182 277.0704 354.3433)" id="freepik--character--inject-45">
<path style="stroke: none; stroke-width: 1; stroke-dasharray: none; stroke-linecap: butt; stroke-dashoffset: 0; stroke-linejoin: miter; stroke-miterlimit: 4; is-custom-font: none; font-file-url: none; fill: rgb(38,50,56); fill-rule: nonzero; opacity: 1;" transform=" translate(-127.3887, -169.8888)" d="M 128.6 169.81 a 1.24 1.24 0 0 1 -1.13 1.33 a 1.15 1.15 0 0 1 -1.29 -1.17 a 1.22 1.22 0 0 1 1.12 -1.34 A 1.25 1.25 0 0 1 128.6 169.81 Z" stroke-linecap="round"/>
</g>
<g transform="matrix(1.8182 0 0 1.8182 272.5728 359.2546)" id="freepik--character--inject-45">
<polygon style="stroke: none; stroke-width: 1; stroke-dasharray: none; stroke-linecap: butt; stroke-dashoffset: 0; stroke-linejoin: miter; stroke-miterlimit: 4; is-custom-font: none; font-file-url: none; fill: rgb(242,143,143); fill-rule: nonzero; opacity: 1;" points="-2.545,-4.03 -1.585,4.03 2.545,2.31 -2.545,-4.03 "/>
</g>
<g transform="matrix(1.8182 0 0 1.8182 256.6964 347.3471)" id="freepik--character--inject-45">
<path style="stroke: none; stroke-width: 1; stroke-dasharray: none; stroke-linecap: butt; stroke-dashoffset: 0; stroke-linejoin: miter; stroke-miterlimit: 4; is-custom-font: none; font-file-url: none; fill: rgb(38,50,56); fill-rule: nonzero; opacity: 1;" transform=" translate(-116.183, -166.0409)" d="M 114.76 166.9 l 2.4 -2.28 a 1.74 1.74 0 0 1 -0.07 2.4 A 1.61 1.61 0 0 1 114.76 166.9 Z" stroke-linecap="round"/>
</g>
<g transform="matrix(1.8182 0 0 1.8182 278.0855 345.8746)" id="freepik--character--inject-45">
<path style="stroke: none; stroke-width: 1; stroke-dasharray: none; stroke-linecap: butt; stroke-dashoffset: 0; stroke-linejoin: miter; stroke-miterlimit: 4; is-custom-font: none; font-file-url: none; fill: rgb(38,50,56); fill-rule: nonzero; opacity: 1;" transform=" translate(-127.947, -165.231)" d="M 126.77 163.88 l 2.66 2 a 1.6 1.6 0 0 1 -2.3 0.37 A 1.76 1.76 0 0 1 126.77 163.88 Z" stroke-linecap="round"/>
</g>
<g transform="matrix(1.8182 0 0 1.8182 210.1587 250.4498)" id="freepik--question-marks--inject-45">
<path style="stroke: none; stroke-width: 1; stroke-dasharray: none; stroke-linecap: butt; stroke-dashoffset: 0; stroke-linejoin: miter; stroke-miterlimit: 4; is-custom-font: none; font-file-url: none; fill: rgb(241,80,51); fill-rule: nonzero; opacity: 1;" transform=" translate(-90.5871, -112.7472)" d="M 88.43 90.63 a 20.33 20.33 0 0 1 5.82 -0.26 a 15.58 15.58 0 0 1 5.35 1.46 a 12.31 12.31 0 0 1 4.18 3.26 a 11 11 0 0 1 2.32 5.11 a 11.17 11.17 0 0 1 0 4.46 a 13.16 13.16 0 0 1 -1.36 3.66 a 21.32 21.32 0 0 1 -2.13 3.16 c -0.8 1 -1.56 1.92 -2.27 2.81 a 18 18 0 0 0 -1.8 2.68 a 5.17 5.17 0 0 0 -0.67 2.76 a 2.52 2.52 0 0 1 -0.33 1.28 a 1.45 1.45 0 0 1 -1 0.71 l -4.71 0.89 a 1.7 1.7 0 0 1 -1.3 -0.27 a 1.38 1.38 0 0 1 -0.69 -1.09 a 11 11 0 0 1 0.22 -4.44 a 15.55 15.55 0 0 1 1.55 -3.69 A 22 22 0 0 1 93.84 110 c 0.83 -1 1.58 -1.9 2.27 -2.78 a 14.49 14.49 0 0 0 1.64 -2.55 a 4 4 0 0 0 0.35 -2.54 a 4.74 4.74 0 0 0 -2.71 -3.5 a 8.58 8.58 0 0 0 -5.56 -0.53 q -5.26 1 -6.75 6.74 a 3.63 3.63 0 0 1 -0.46 1.14 a 1.64 1.64 0 0 1 -1.09 0.56 l -5 0.95 a 1.43 1.43 0 0 1 -1 -0.19 a 1.35 1.35 0 0 1 -0.59 -0.92 a 9.8 9.8 0 0 1 0.5 -4.68 A 15.46 15.46 0 0 1 78 96.93 a 18.85 18.85 0 0 1 4.46 -4 A 16.58 16.58 0 0 1 88.43 90.63 Z m 9.13 34.75 a 1.74 1.74 0 0 1 2 1.36 l 1 5.46 a 1.61 1.61 0 0 1 -0.27 1.27 a 1.67 1.67 0 0 1 -1.08 0.72 l -5.33 1 a 1.63 1.63 0 0 1 -1.28 -0.27 a 1.67 1.67 0 0 1 -0.72 -1.08 l -1 -5.46 a 1.65 1.65 0 0 1 0.28 -1.27 a 1.6 1.6 0 0 1 1.08 -0.72 Z" stroke-linecap="round"/>
</g>
<g transform="matrix(1.8182 0 0 1.8182 288.3964 275.2987)" id="freepik--question-marks--inject-45">
<path style="stroke: none; stroke-width: 1; stroke-dasharray: none; stroke-linecap: butt; stroke-dashoffset: 0; stroke-linejoin: miter; stroke-miterlimit: 4; is-custom-font: none; font-file-url: none; fill: rgb(241,80,51); fill-rule: nonzero; opacity: 1;" transform=" translate(-133.6179, -126.4141)" d="M 139.25 113.16 a 13.91 13.91 0 0 1 3.2 2.44 a 10.49 10.49 0 0 1 2.19 3.14 a 8.59 8.59 0 0 1 0.77 3.57 a 7.52 7.52 0 0 1 -1 3.74 a 8 8 0 0 1 -1.95 2.38 a 9.33 9.33 0 0 1 -2.35 1.33 a 15 15 0 0 1 -2.53 0.74 l -2.44 0.48 a 11.59 11.59 0 0 0 -2.14 0.63 a 3.52 3.52 0 0 0 -1.57 1.16 a 1.7 1.7 0 0 1 -0.75 0.53 a 1 1 0 0 1 -0.85 -0.07 l -2.89 -1.62 a 1.21 1.21 0 0 1 -0.58 -0.72 a 1 1 0 0 1 0.12 -0.88 a 7.56 7.56 0 0 1 2.08 -2.25 a 10.7 10.7 0 0 1 2.46 -1.28 a 16 16 0 0 1 2.57 -0.68 c 0.87 -0.15 1.68 -0.3 2.44 -0.46 a 10.59 10.59 0 0 0 2 -0.63 a 2.84 2.84 0 0 0 1.32 -1.19 a 3.3 3.3 0 0 0 0.1 -3.06 a 5.9 5.9 0 0 0 -2.71 -2.74 a 5.73 5.73 0 0 0 -6.56 0.58 a 2.36 2.36 0 0 1 -0.75 0.41 a 1.13 1.13 0 0 1 -0.82 -0.18 l -3.08 -1.72 a 1 1 0 0 1 -0.46 -0.56 a 0.92 0.92 0 0 1 0.09 -0.75 a 6.83 6.83 0 0 1 2.33 -2.26 a 10.62 10.62 0 0 1 3.5 -1.34 a 12.75 12.75 0 0 1 4.11 -0.13 A 11.45 11.45 0 0 1 139.25 113.16 Z m -10.54 22.45 a 1.17 1.17 0 0 1 0.56 0.71 a 1.14 1.14 0 0 1 -0.1 0.89 l -1.87 3.35 a 1.18 1.18 0 0 1 -1.6 0.46 l -3.27 -1.83 a 1.07 1.07 0 0 1 -0.55 -0.71 a 1.11 1.11 0 0 1 0.09 -0.89 l 1.87 -3.35 a 1.16 1.16 0 0 1 0.71 -0.55 a 1.1 1.1 0 0 1 0.89 0.1 Z" stroke-linecap="round"/>
</g>
<g transform="matrix(1.8182 0 0 1.8182 288.3964 275.2987)" id="freepik--question-marks--inject-45">
<path style="stroke: none; stroke-width: 1; stroke-dasharray: none; stroke-linecap: butt; stroke-dashoffset: 0; stroke-linejoin: miter; stroke-miterlimit: 4; is-custom-font: none; font-file-url: none; fill: rgb(0,0,0); fill-rule: nonzero; opacity: 0.2;" transform=" translate(-133.6179, -126.4141)" d="M 139.25 113.16 a 13.91 13.91 0 0 1 3.2 2.44 a 10.49 10.49 0 0 1 2.19 3.14 a 8.59 8.59 0 0 1 0.77 3.57 a 7.52 7.52 0 0 1 -1 3.74 a 8 8 0 0 1 -1.95 2.38 a 9.33 9.33 0 0 1 -2.35 1.33 a 15 15 0 0 1 -2.53 0.74 l -2.44 0.48 a 11.59 11.59 0 0 0 -2.14 0.63 a 3.52 3.52 0 0 0 -1.57 1.16 a 1.7 1.7 0 0 1 -0.75 0.53 a 1 1 0 0 1 -0.85 -0.07 l -2.89 -1.62 a 1.21 1.21 0 0 1 -0.58 -0.72 a 1 1 0 0 1 0.12 -0.88 a 7.56 7.56 0 0 1 2.08 -2.25 a 10.7 10.7 0 0 1 2.46 -1.28 a 16 16 0 0 1 2.57 -0.68 c 0.87 -0.15 1.68 -0.3 2.44 -0.46 a 10.59 10.59 0 0 0 2 -0.63 a 2.84 2.84 0 0 0 1.32 -1.19 a 3.3 3.3 0 0 0 0.1 -3.06 a 5.9 5.9 0 0 0 -2.71 -2.74 a 5.73 5.73 0 0 0 -6.56 0.58 a 2.36 2.36 0 0 1 -0.75 0.41 a 1.13 1.13 0 0 1 -0.82 -0.18 l -3.08 -1.72 a 1 1 0 0 1 -0.46 -0.56 a 0.92 0.92 0 0 1 0.09 -0.75 a 6.83 6.83 0 0 1 2.33 -2.26 a 10.62 10.62 0 0 1 3.5 -1.34 a 12.75 12.75 0 0 1 4.11 -0.13 A 11.45 11.45 0 0 1 139.25 113.16 Z m -10.54 22.45 a 1.17 1.17 0 0 1 0.56 0.71 a 1.14 1.14 0 0 1 -0.1 0.89 l -1.87 3.35 a 1.18 1.18 0 0 1 -1.6 0.46 l -3.27 -1.83 a 1.07 1.07 0 0 1 -0.55 -0.71 a 1.11 1.11 0 0 1 0.09 -0.89 l 1.87 -3.35 a 1.16 1.16 0 0 1 0.71 -0.55 a 1.1 1.1 0 0 1 0.89 0.1 Z" stroke-linecap="round"/>
</g>
<g transform="matrix(1.8182 0 0 1.8182 151.8988 303.9142)" id="freepik--question-marks--inject-45">
<path style="stroke: none; stroke-width: 1; stroke-dasharray: none; stroke-linecap: butt; stroke-dashoffset: 0; stroke-linejoin: miter; stroke-miterlimit: 4; is-custom-font: none; font-file-url: none; fill: rgb(241,80,51); fill-rule: nonzero; opacity: 1;" transform=" translate(-58.5441, -142.1527)" d="M 68.81 149.88 a 1.36 1.36 0 0 1 1 -0.37 a 1.4 1.4 0 0 1 1 0.44 l 3.08 3.34 a 1.41 1.41 0 0 1 -0.08 2 l -3.26 3 a 1.41 1.41 0 0 1 -2 -0.08 l -3.08 -3.34 a 1.4 1.4 0 0 1 0.08 -2 Z m -21.4 -20.15 A 16.73 16.73 0 0 1 51.33 127 a 12.87 12.87 0 0 1 4.34 -1.3 a 10.31 10.31 0 0 1 4.31 0.44 a 9 9 0 0 1 3.83 2.55 a 9.22 9.22 0 0 1 2 3.07 a 10.84 10.84 0 0 1 0.64 3.13 a 18 18 0 0 1 -0.1 3.12 c -0.13 1 -0.25 2 -0.36 2.93 a 14.82 14.82 0 0 0 -0.09 2.64 a 4.2 4.2 0 0 0 0.74 2.21 a 2 2 0 0 1 0.32 1 a 1.15 1.15 0 0 1 -0.4 0.93 l -2.88 2.67 a 1.43 1.43 0 0 1 -1 0.37 a 1.14 1.14 0 0 1 -0.95 -0.45 a 9.17 9.17 0 0 1 -1.78 -3.18 a 12.58 12.58 0 0 1 -0.52 -3.23 a 18.33 18.33 0 0 1 0.18 -3.16 c 0.15 -1 0.27 -2 0.37 -2.9 a 11.57 11.57 0 0 0 0 -2.49 a 3.25 3.25 0 0 0 -0.85 -1.91 a 3.89 3.89 0 0 0 -3.4 -1.25 a 7.07 7.07 0 0 0 -4.08 2 q -3.22 3 -1.77 7.61 a 2.89 2.89 0 0 1 0.18 1 a 1.29 1.29 0 0 1 -0.51 0.85 l -3.07 2.84 a 1.14 1.14 0 0 1 -0.8 0.32 a 1.07 1.07 0 0 1 -0.8 -0.38 A 7.9 7.9 0 0 1 43.15 143 a 12.54 12.54 0 0 1 -0.23 -4.43 a 15.16 15.16 0 0 1 1.38 -4.67 A 13.42 13.42 0 0 1 47.41 129.73 Z" stroke-linecap="round"/>
</g>
<g transform="matrix(1.8182 0 0 1.8182 151.8988 303.9142)" id="freepik--question-marks--inject-45">
<path style="stroke: none; stroke-width: 1; stroke-dasharray: none; stroke-linecap: butt; stroke-dashoffset: 0; stroke-linejoin: miter; stroke-miterlimit: 4; is-custom-font: none; font-file-url: none; fill: rgb(255,255,255); fill-rule: nonzero; opacity: 0.6;" transform=" translate(-58.5441, -142.1527)" d="M 68.81 149.88 a 1.36 1.36 0 0 1 1 -0.37 a 1.4 1.4 0 0 1 1 0.44 l 3.08 3.34 a 1.41 1.41 0 0 1 -0.08 2 l -3.26 3 a 1.41 1.41 0 0 1 -2 -0.08 l -3.08 -3.34 a 1.4 1.4 0 0 1 0.08 -2 Z m -21.4 -20.15 A 16.73 16.73 0 0 1 51.33 127 a 12.87 12.87 0 0 1 4.34 -1.3 a 10.31 10.31 0 0 1 4.31 0.44 a 9 9 0 0 1 3.83 2.55 a 9.22 9.22 0 0 1 2 3.07 a 10.84 10.84 0 0 1 0.64 3.13 a 18 18 0 0 1 -0.1 3.12 c -0.13 1 -0.25 2 -0.36 2.93 a 14.82 14.82 0 0 0 -0.09 2.64 a 4.2 4.2 0 0 0 0.74 2.21 a 2 2 0 0 1 0.32 1 a 1.15 1.15 0 0 1 -0.4 0.93 l -2.88 2.67 a 1.43 1.43 0 0 1 -1 0.37 a 1.14 1.14 0 0 1 -0.95 -0.45 a 9.17 9.17 0 0 1 -1.78 -3.18 a 12.58 12.58 0 0 1 -0.52 -3.23 a 18.33 18.33 0 0 1 0.18 -3.16 c 0.15 -1 0.27 -2 0.37 -2.9 a 11.57 11.57 0 0 0 0 -2.49 a 3.25 3.25 0 0 0 -0.85 -1.91 a 3.89 3.89 0 0 0 -3.4 -1.25 a 7.07 7.07 0 0 0 -4.08 2 q -3.22 3 -1.77 7.61 a 2.89 2.89 0 0 1 0.18 1 a 1.29 1.29 0 0 1 -0.51 0.85 l -3.07 2.84 a 1.14 1.14 0 0 1 -0.8 0.32 a 1.07 1.07 0 0 1 -0.8 -0.38 A 7.9 7.9 0 0 1 43.15 143 a 12.54 12.54 0 0 1 -0.23 -4.43 a 15.16 15.16 0 0 1 1.38 -4.67 A 13.42 13.42 0 0 1 47.41 129.73 Z" stroke-linecap="round"/>
</g>
<g transform="matrix(1.8182 0 0 1.8182 500.4822 445.8678)" id="freepik--big-question-mark--inject-45">
<path style="stroke: none; stroke-width: 1; stroke-dasharray: none; stroke-linecap: butt; stroke-dashoffset: 0; stroke-linejoin: miter; stroke-miterlimit: 4; is-custom-font: none; font-file-url: none; fill: rgb(49,159,203); fill-rule: nonzero; opacity: 0.4;" transform=" translate(-250.265, -220.2271)" d="M 272.53 219.71 q -5.16 -3 -12.26 1.06 q -6.93 4 -11.95 13 L 228 222 c 3.14 -5.61 6.85 -9.74 11.12 -12.43 c 0.27 -0.17 0.55 -0.37 0.83 -0.53 a 17.12 17.12 0 0 1 5.52 -2.14 a 9.52 9.52 0 0 1 6.67 1 l 1.36 0.79 c 4.08 2.35 16.08 9.29 18.93 10.92 Z" stroke-linecap="round"/>
</g>
<g transform="matrix(1.8182 0 0 1.8182 473.4639 492.5186)" id="freepik--big-question-mark--inject-45">
<path style="stroke: none; stroke-width: 1; stroke-dasharray: none; stroke-linecap: butt; stroke-dashoffset: 0; stroke-linejoin: miter; stroke-miterlimit: 4; is-custom-font: none; font-file-url: none; fill: rgb(49,159,203); fill-rule: nonzero; opacity: 0.3;" transform=" translate(-235.405, -245.885)" d="M 248.8 269.76 l -0.09 0 c -0.37 -0.21 -17 -9.83 -20.28 -11.71 a 10.7 10.7 0 0 1 -1.12 -0.73 q -5.3 -4 -5.3 -13.94 a 42.69 42.69 0 0 1 5.25 -20 c 0.24 -0.47 0.49 -0.93 0.75 -1.37 l 20.31 11.73 c -0.25 0.44 -0.5 0.9 -0.74 1.36 a 42.75 42.75 0 0 0 -5.25 20 q 0 9.94 5.3 13.94 A 9.33 9.33 0 0 0 248.8 269.76 Z" stroke-linecap="round"/>
</g>
<g transform="matrix(1.8182 0 0 1.8182 490.0856 198.2112)" id="freepik--big-question-mark--inject-45">
<path style="stroke: none; stroke-width: 1; stroke-dasharray: none; stroke-linecap: butt; stroke-dashoffset: 0; stroke-linejoin: miter; stroke-miterlimit: 4; is-custom-font: none; font-file-url: none; fill: rgb(49,159,203); fill-rule: nonzero; opacity: 1;" transform=" translate(-244.5466, -84.0156)" d="M 263.58 48.05 q 14.79 -8.55 25.18 -7.27 a 21 21 0 0 1 8 2.66 a 2.12 2.12 0 0 1 -0.2 -0.12 c -2.38 -1.34 -16.72 -9.61 -20 -11.54 a 20.91 20.91 0 0 0 -8.16 -2.72 q -10.4 -1.27 -25.19 7.26 q -23 13.27 -37 39 t -13.85 52.53 l 20.31 11.73 q -0.21 -26.82 13.85 -52.54 T 263.58 48.05 Z" stroke-linecap="round"/>
</g>
<g transform="matrix(1.8182 0 0 1.8182 501.5281 152.3781)" id="freepik--big-question-mark--inject-45">
<path style="stroke: none; stroke-width: 1; stroke-dasharray: none; stroke-linecap: butt; stroke-dashoffset: 0; stroke-linejoin: miter; stroke-miterlimit: 4; is-custom-font: none; font-file-url: none; fill: rgb(0,0,0); fill-rule: nonzero; opacity: 0.2;" transform=" translate(-250.84, -58.8076)" d="M 296.6 43.33 a 21.41 21.41 0 0 0 -7.84 -2.55 q -10.38 -1.28 -25.18 7.27 q -23 13.26 -37 39 c -0.39 0.71 -0.77 1.43 -1.14 2.14 L 205.08 77.44 c 0.37 -0.71 0.75 -1.43 1.14 -2.14 q 14.06 -25.71 37 -39 q 14.81 -8.54 25.19 -7.26 a 20.92 20.92 0 0 1 8.16 2.73 C 279.88 33.72 294.22 42 296.6 43.33 Z" stroke-linecap="round"/>
</g>
<g transform="matrix(1.8182 0 0 1.8182 425.2013 242.7279)" id="freepik--big-question-mark--inject-45">
<path style="stroke: none; stroke-width: 1; stroke-dasharray: none; stroke-linecap: butt; stroke-dashoffset: 0; stroke-linejoin: miter; stroke-miterlimit: 4; is-custom-font: none; font-file-url: none; fill: rgb(0,0,0); fill-rule: nonzero; opacity: 0.3;" transform=" translate(-208.8605, -108.5)" d="M 225.39 89.17 q -12.91 24.69 -12.71 50.39 l -20.31 -11.73 q -0.19 -25.71 12.71 -50.39 Z" stroke-linecap="round"/>
</g>
<g transform="matrix(1.8182 0 0 1.8182 507.3733 311.484)" id="freepik--big-question-mark--inject-45">
<path style="stroke: none; stroke-width: 1; stroke-dasharray: none; stroke-linecap: butt; stroke-dashoffset: 0; stroke-linejoin: miter; stroke-miterlimit: 4; is-custom-font: none; font-file-url: none; fill: rgb(49,159,203); fill-rule: nonzero; opacity: 1;" transform=" translate(-254.055, -146.3155)" d="M 277.38 81.29 q -5.53 -2.94 -14.77 2.3 a 36.82 36.82 0 0 1 -2.24 10.72 q -2.31 6.22 -13.44 25.66 q -11.53 20.1 -16.68 38.39 a 136.14 136.14 0 0 0 -5.14 37 l 0.1 6.23 l 13.86 8 l 6.46 3.73 l -0.11 -6.24 V 207 a 136.61 136.61 0 0 1 5.14 -36.88 q 5.15 -18.29 16.69 -38.38 q 11.12 -19.44 13.43 -25.67 A 36.52 36.52 0 0 0 283 93.23 Q 283 84.28 277.38 81.29 Z" stroke-linecap="round"/>
</g>
<g transform="matrix(1.8182 0 0 1.8182 503.4551 329.3829)" id="freepik--big-question-mark--inject-45">
<path style="stroke: none; stroke-width: 1; stroke-dasharray: none; stroke-linecap: butt; stroke-dashoffset: 0; stroke-linejoin: miter; stroke-miterlimit: 4; is-custom-font: none; font-file-url: none; fill: rgb(0,0,0); fill-rule: nonzero; opacity: 0.3;" transform=" translate(-251.9, -156.16)" d="M 278.69 110.56 q -3.44 7.16 -11.44 21.14 q -11.55 20.1 -16.69 38.39 A 136.54 136.54 0 0 0 245.42 207 v 0.16 l 0.11 6.24 l -6.46 -3.72 l -13.86 -8 l -0.1 -6.24 a 136.2 136.2 0 0 1 5.14 -37 q 5.15 -18.29 16.68 -38.39 q 8 -14 11.46 -21.13 Z" stroke-linecap="round"/>
</g>
<g transform="matrix(1.8182 0 0 1.8182 537.6276 218.0649)" id="freepik--big-question-mark--inject-45">
<path style="stroke: none; stroke-width: 1; stroke-dasharray: none; stroke-linecap: butt; stroke-dashoffset: 0; stroke-linejoin: miter; stroke-miterlimit: 4; is-custom-font: none; font-file-url: none; fill: rgb(0,0,0); fill-rule: nonzero; opacity: 0.4;" transform=" translate(-270.695, -94.9355)" d="M 283 93.23 a 36.52 36.52 0 0 1 -2.31 12.8 c -0.43 1.17 -1.1 2.68 -2 4.53 l -20.3 -11.72 q 1.33 -2.78 2 -4.53 a 36.82 36.82 0 0 0 2.24 -10.72 q 9.24 -5.24 14.77 -2.3 T 283 93.23 Z" stroke-linecap="round"/>
</g>
<g transform="matrix(1.8182 0 0 1.8182 522.0252 275.9066)" id="freepik--big-question-mark--inject-45">
<path style="stroke: none; stroke-width: 1; stroke-dasharray: none; stroke-linecap: butt; stroke-dashoffset: 0; stroke-linejoin: miter; stroke-miterlimit: 4; is-custom-font: none; font-file-url: none; fill: rgb(49,159,203); fill-rule: nonzero; opacity: 1;" transform=" translate(-262.1134, -126.7477)" d="M 240.17 123.68 l -27.49 15.88 q -0.21 -26.82 13.85 -52.54 t 37 -39 q 14.79 -8.55 25.18 -7.27 t 16.63 11.39 q 6.25 10.11 6.25 25.22 a 81.52 81.52 0 0 1 -2 17.38 a 130.84 130.84 0 0 1 -6.29 20 q -2.52 6.36 -12.07 23.48 q -9.13 16.32 -11.44 22.21 A 79.47 79.47 0 0 0 276 174.8 a 150.73 150.73 0 0 0 -2 22.14 l -28.43 16.42 l -0.11 -6.24 a 136.2 136.2 0 0 1 5.14 -37 q 5.15 -18.29 16.69 -38.38 q 11.12 -19.44 13.43 -25.67 A 36.52 36.52 0 0 0 283 93.23 q 0 -9 -5.61 -11.94 t -15.06 2.46 q -9.66 5.58 -15.85 16.74 A 48 48 0 0 0 240.17 123.68 Z" stroke-linecap="round"/>
</g>
<g transform="matrix(1.8182 0 0 1.8182 519.0549 490.418)" id="freepik--big-question-mark--inject-45">
<path style="stroke: none; stroke-width: 1; stroke-dasharray: none; stroke-linecap: butt; stroke-dashoffset: 0; stroke-linejoin: miter; stroke-miterlimit: 4; is-custom-font: none; font-file-url: none; fill: rgb(49,159,203); fill-rule: nonzero; opacity: 1;" transform=" translate(-260.48, -244.7296)" d="M 260.22 220.83 q 7.65 -4.43 13.06 -0.55 t 5.41 13.81 a 42.9 42.9 0 0 1 -5.35 20.09 Q 268 264.33 260.43 268.7 t -12.86 0.36 q -5.3 -4 -5.3 -13.95 a 42.75 42.75 0 0 1 5.25 -20 Q 252.77 225.13 260.22 220.83 Z" stroke-linecap="round"/>
</g>
</svg>